<svg id="Layer_1" data-name="Layer 1" xmlns="http://www.w3.org/2000/svg" viewBox="0 0 679.13 423.66"><defs><style>.cls-1{fill:#fafafa;}.cls-2{fill:#e0e0e0;}.cls-3{fill:#fff;}.cls-4{fill:#263238;}.cls-5{fill:#f4c542;}.cls-6{opacity:0.2;}.cls-7{fill:#041424;}.cls-8{fill:#f5f5f5;}.cls-9{fill:#455a64;}.cls-10{fill:#ffbe9d;}.cls-11{fill:#eb996e;}.cls-12{fill:#01497c;}.cls-13{opacity:0.3;}</style></defs><g id="freepik--background-complete--inject-95"><rect class="cls-1" x="0.29" y="98.91" width="156.2" height="87.34"/><path class="cls-2" d="M185.24,229.45v-6.13c0-4,0-9.9-.05-17.47,0-15.12-.06-36.93-.1-63.74l.2.2-156.19.06h0l.26-.26v87.34l-.24-.24,112.33.12,32.27.06h.11l-32.22.07L29,229.7h-.25V141.85H29l156.19.06h.2v.2c0,26.87-.08,48.72-.11,63.87,0,7.54,0,13.42-.05,17.41v4.53C185.26,229,185.24,229.45,185.24,229.45Z" transform="translate(-28.75 -43.2)"/><rect class="cls-2" x="19.37" y="119.73" width="22.08" height="22.08"/><path class="cls-2" d="M100.54,166c0,.14-5.16.26-11.51.26s-11.52-.12-11.52-.26,5.16-.26,11.52-.26S100.54,165.89,100.54,166Z" transform="translate(-28.75 -43.2)"/><path class="cls-2" d="M174.07,174c0,.14-21.61.26-48.27.26s-48.29-.12-48.29-.26,21.62-.26,48.29-.26S174.07,173.83,174.07,174Z" transform="translate(-28.75 -43.2)"/><path class="cls-2" d="M141.59,182.88c0,.14-14.21.26-31.73.26s-31.72-.12-31.72-.26,14.2-.26,31.72-.26S141.59,182.73,141.59,182.88Z" transform="translate(-28.75 -43.2)"/><path class="cls-2" d="M162.11,217.88H55.41a10.24,10.24,0,0,1-10.23-10.24h0a10.23,10.23,0,0,1,10.23-10.23h106.7a10.23,10.23,0,0,1,10.24,10.22h0a10.23,10.23,0,0,1-10.24,10.24Z" transform="translate(-28.75 -43.2)"/><path class="cls-3" d="M89.15,209.08H86.53l-.5,1.21H84.69l2.52-5.64H88.5l2.5,5.64H89.65Zm-.41-1-.9-2.16L87,208.09Z" transform="translate(-28.75 -43.2)"/><path class="cls-3" d="M96.5,206.69c0,1.26-1,2-2.45,2H92.91v1.56h-1.3v-5.64h2.44C95.55,204.65,96.5,205.43,96.5,206.69Zm-1.32,0c0-.62-.41-1-1.21-1H92.91v2H94C94.77,207.67,95.18,207.31,95.18,206.69Z" transform="translate(-28.75 -43.2)"/><path class="cls-3" d="M102.31,206.69c0,1.26-.94,2-2.44,2H98.73v1.56H97.42v-5.64h2.45C101.37,204.65,102.31,205.43,102.31,206.69Zm-1.32,0c0-.62-.4-1-1.2-1H98.73v2h1.06c.8,0,1.21-.38,1.21-1Z" transform="translate(-28.75 -43.2)"/><path class="cls-3" d="M103.24,204.65h1.31v4.57h2.83v1.07h-4.14Z" transform="translate(-28.75 -43.2)"/><path class="cls-3" d="M110.24,208.29v2h-1.31v-2l-2.18-3.62h1.38l1.51,2.5,1.51-2.5h1.28Z" transform="translate(-28.75 -43.2)"/><path class="cls-3" d="M120.43,204.65v5.64h-1.07l-2.81-3.43v3.43h-1.29v-5.64h1.08l2.8,3.42v-3.42Z" transform="translate(-28.75 -43.2)"/><path class="cls-3" d="M121.41,207.47a3.1,3.1,0,1,1,3.28,2.9h-.19a2.93,2.93,0,0,1-3.09-2.75Zm4.85,0a1.76,1.76,0,1,0-1.76,1.8,1.71,1.71,0,0,0,1.76-1.66Z" transform="translate(-28.75 -43.2)"/><path class="cls-3" d="M136.91,204.65l-1.85,5.64h-1.4l-1.24-3.82-1.28,3.82h-1.39l-1.86-5.64h1.36l1.27,4,1.33-4h1.21l1.29,4,1.31-4Z" transform="translate(-28.75 -43.2)"/><rect class="cls-1" x="24.78" y="284.9" width="135.01" height="75.49"/><path class="cls-2" d="M188.54,403.6v-5.31c0-3.47,0-8.56-.06-15.1,0-13.07-.06-31.92-.1-55.09l.2.2-135,.06h0l.26-.26v75.5l-.24-.25,97.08.12,27.9.07h0l-27.85.07-97.24.12h-.24v-76h.27l135,.06h.2v.2c-.05,23.23-.08,42.12-.11,55.21v19A8.23,8.23,0,0,1,188.54,403.6Z" transform="translate(-28.75 -43.2)"/><rect class="cls-2" x="41.28" y="302.9" width="19.09" height="19.09"/><path class="cls-2" d="M115.33,348.78a95.33,95.33,0,0,1-10,.26,97.15,97.15,0,0,1-10-.26,97.15,97.15,0,0,1,10-.26A95.33,95.33,0,0,1,115.33,348.78Z" transform="translate(-28.75 -43.2)"/><path class="cls-2" d="M178.89,355.64c0,.14-18.68.26-41.73.26s-41.73-.12-41.73-.26,18.68-.26,41.73-.26S178.89,355.5,178.89,355.64Z" transform="translate(-28.75 -43.2)"/><path class="cls-2" d="M150.81,363.34c0,.14-12.28.26-27.42.26S96,363.48,96,363.34s12.28-.26,27.42-.26S150.81,363.19,150.81,363.34Z" transform="translate(-28.75 -43.2)"/><path class="cls-2" d="M168.55,393.59H76.33a8.85,8.85,0,0,1-8.85-8.85h0a8.84,8.84,0,0,1,8.84-8.84h92.23a8.84,8.84,0,0,1,8.85,8.83h0a8.85,8.85,0,0,1-8.85,8.85Z" transform="translate(-28.75 -43.2)"/><path class="cls-3" d="M105.48,386h-2.26l-.43,1h-1.15l2.17-4.87h1.11L107.1,387h-1.19Zm-.35-.86-.77-1.86-.78,1.86Z" transform="translate(-28.75 -43.2)"/><path class="cls-3" d="M111.83,383.93c0,1.08-.81,1.76-2.11,1.76h-1V387h-1.13v-4.87h2.11C111,382.16,111.83,382.83,111.83,383.93Zm-1.14,0c0-.54-.35-.85-1-.85h-.92v1.69h.92C110.34,384.77,110.69,384.46,110.69,383.93Z" transform="translate(-28.75 -43.2)"/><path class="cls-3" d="M116.86,383.93c0,1.08-.81,1.76-2.11,1.76h-1V387h-1.13v-4.87h2.11C116.05,382.16,116.86,382.83,116.86,383.93Zm-1.14,0c0-.54-.35-.85-1-.85h-.91v1.69h.91C115.37,384.77,115.72,384.46,115.72,383.93Z" transform="translate(-28.75 -43.2)"/><path class="cls-3" d="M117.67,382.16h1.12v3.95h2.45V387h-3.57Z" transform="translate(-28.75 -43.2)"/><path class="cls-3" d="M123.71,385.3V387h-1.13v-1.74l-1.88-3.13h1.19l1.31,2.16,1.3-2.16h1.1Z" transform="translate(-28.75 -43.2)"/><path class="cls-3" d="M132.52,382.16V387h-.93l-2.42-3v3h-1.12v-4.87H129l2.43,3v-3Z" transform="translate(-28.75 -43.2)"/><path class="cls-3" d="M133.37,384.59a2.67,2.67,0,1,1,2.82,2.52H136a2.53,2.53,0,0,1-2.67-2.37Zm4.19,0a1.52,1.52,0,1,0-1.52,1.56,1.48,1.48,0,0,0,1.52-1.44Z" transform="translate(-28.75 -43.2)"/><path class="cls-3" d="M146.76,382.16,145.17,387H144l-1.08-3.3-1.1,3.3h-1.21l-1.6-4.87h1.17l1.1,3.42,1.15-3.42h1l1.12,3.45,1.13-3.45Z" transform="translate(-28.75 -43.2)"/><rect class="cls-1" x="495.14" y="318.96" width="135.01" height="75.49"/><path class="cls-2" d="M658.9,437.66v-5.31c0-3.47,0-8.56,0-15.1,0-13.07-.06-31.92-.11-55.09l.2.2-135,.06h0l.26-.26v75.5l-.24-.25,97.08.12,27.9.07h.11l-27.85.07-97.24.12h-.24v-76H524l135,.06h.2v.2c-.05,23.23-.08,42.12-.11,55.21v19A4.7,4.7,0,0,1,658.9,437.66Z" transform="translate(-28.75 -43.2)"/><rect class="cls-2" x="511.64" y="336.96" width="19.09" height="19.09"/><path class="cls-2" d="M585.69,382.84a188.71,188.71,0,0,1-19.9,0A188.71,188.71,0,0,1,585.69,382.84Z" transform="translate(-28.75 -43.2)"/><path class="cls-2" d="M649.25,389.7c0,.14-18.68.26-41.73.26s-41.73-.12-41.73-.26,18.68-.26,41.73-.26S649.25,389.56,649.25,389.7Z" transform="translate(-28.75 -43.2)"/><path class="cls-2" d="M621.17,397.4c0,.14-12.28.26-27.42.26s-27.42-.12-27.42-.26,12.28-.26,27.42-.26S621.17,397.25,621.17,397.4Z" transform="translate(-28.75 -43.2)"/><path class="cls-2" d="M638.91,427.65H546.69a8.85,8.85,0,0,1-8.85-8.85h0a8.84,8.84,0,0,1,8.84-8.84h92.23a8.84,8.84,0,0,1,8.85,8.83h0a8.85,8.85,0,0,1-8.85,8.85Z" transform="translate(-28.75 -43.2)"/><path class="cls-3" d="M575.85,420.05h-2.27l-.43,1H572l2.17-4.87h1.11l2.18,4.87h-1.18Zm-.36-.86-.77-1.87-.77,1.87Z" transform="translate(-28.75 -43.2)"/><path class="cls-3" d="M582.2,418c0,1.08-.82,1.76-2.12,1.76h-1v1.34H578v-4.87h2.11C581.38,416.22,582.2,416.89,582.2,418Zm-1.14,0c0-.54-.35-.85-1-.85h-.92v1.69H580C580.71,418.83,581.06,418.51,581.06,418Z" transform="translate(-28.75 -43.2)"/><path class="cls-3" d="M587.23,418c0,1.08-.82,1.76-2.12,1.76h-1v1.34H583v-4.87h2.11C586.41,416.22,587.23,416.89,587.23,418Zm-1.15,0c0-.54-.34-.85-1-.85h-.92v1.69h.92c.66,0,1-.33,1-.84Z" transform="translate(-28.75 -43.2)"/><path class="cls-3" d="M588,416.22h1.13v3.95h2.44v.92H588Z" transform="translate(-28.75 -43.2)"/><path class="cls-3" d="M594.07,419.36v1.73H593v-1.74l-1.89-3.13h1.2l1.3,2.16,1.3-2.16H596Z" transform="translate(-28.75 -43.2)"/><path class="cls-3" d="M602.88,416.22v4.87H602l-2.43-3v3h-1.12v-4.87h.94l2.42,3v-3Z" transform="translate(-28.75 -43.2)"/><path class="cls-3" d="M603.74,418.65a2.67,2.67,0,1,1,2.82,2.52h-.16a2.52,2.52,0,0,1-2.66-2.36Zm4.19,0a1.53,1.53,0,1,0-1.53,1.56,1.49,1.49,0,0,0,1.53-1.45Z" transform="translate(-28.75 -43.2)"/><path class="cls-3" d="M617.12,416.22l-1.59,4.87h-1.21l-1.07-3.3-1.11,3.3h-1.2l-1.6-4.87h1.17l1.1,3.42,1.14-3.42h1l1.11,3.45,1.13-3.45Z" transform="translate(-28.75 -43.2)"/><rect class="cls-1" x="522.58" y="134.63" width="156.2" height="87.34"/><path class="cls-2" d="M707.53,265.17V241.58c0-15.12-.06-36.93-.11-63.75l.2.2-156.19.06h0l.26-.26v87.34l-.24-.24,112.33.12,32.28.07h.11l-32.22.07-112.49.12h-.24V177.46h.27l156.19.06h.2v.2c0,26.87-.08,48.72-.11,63.87v21.94A4.88,4.88,0,0,1,707.53,265.17Z" transform="translate(-28.75 -43.2)"/><rect class="cls-2" x="541.67" y="155.45" width="22.08" height="22.08"/><path class="cls-2" d="M622.83,201.75c0,.15-5.15.26-11.51.26s-11.51-.11-11.51-.26,5.15-.26,11.51-.26S622.83,201.61,622.83,201.75Z" transform="translate(-28.75 -43.2)"/><path class="cls-2" d="M696.37,209.69c0,.15-21.62.26-48.28.26s-48.28-.11-48.28-.26,21.61-.26,48.28-.26S696.37,209.55,696.37,209.69Z" transform="translate(-28.75 -43.2)"/><path class="cls-2" d="M663.88,218.6c0,.14-14.2.26-31.72.26s-31.73-.12-31.73-.26,14.2-.26,31.73-.26S663.88,218.45,663.88,218.6Z" transform="translate(-28.75 -43.2)"/><rect class="cls-2" x="538.72" y="189.93" width="127.17" height="20.47" rx="10.23"/><path class="cls-3" d="M611.44,244.8h-2.62l-.5,1.21H607l2.51-5.64h1.29l2.52,5.64H612Zm-.41-1-.89-2.16-.9,2.16Z" transform="translate(-28.75 -43.2)"/><path class="cls-3" d="M618.79,242.42c0,1.25-.94,2-2.45,2h-1.13V246H613.9v-5.64h2.44C617.85,240.37,618.79,241.15,618.79,242.42Zm-1.32,0c0-.62-.4-1-1.2-1h-1.06v2h1.06C617.07,243.39,617.47,243,617.47,242.42Z" transform="translate(-28.75 -43.2)"/><path class="cls-3" d="M624.61,242.42c0,1.25-.94,2-2.45,2H621V246h-1.3v-5.64h2.44C623.67,240.37,624.61,241.15,624.61,242.42Zm-1.32,0c0-.62-.41-1-1.2-1H621v2h1.07C622.88,243.39,623.29,243,623.29,242.42Z" transform="translate(-28.75 -43.2)"/><path class="cls-3" d="M625.54,240.37h1.3V245h2.83v1h-4.13Z" transform="translate(-28.75 -43.2)"/><path class="cls-3" d="M632.53,244v2h-1.3v-2L629,240.37h1.39l1.5,2.5,1.51-2.5h1.28Z" transform="translate(-28.75 -43.2)"/><path class="cls-3" d="M642.72,240.37V246h-1.07l-2.81-3.43V246h-1.29v-5.64h1.08l2.81,3.42v-3.42Z" transform="translate(-28.75 -43.2)"/><path class="cls-3" d="M643.71,243.19a3.09,3.09,0,1,1,3.26,2.92h-.18a2.92,2.92,0,0,1-3.08-2.73Zm4.85,0a1.77,1.77,0,1,0-1.77,1.8,1.72,1.72,0,0,0,1.77-1.69Z" transform="translate(-28.75 -43.2)"/><path class="cls-3" d="M659.2,240.37,657.36,246H656l-1.25-3.82L653.43,246H652l-1.85-5.64h1.35l1.27,4,1.33-4h1.21l1.29,4,1.31-4Z" transform="translate(-28.75 -43.2)"/></g><g id="freepik--Window--inject-95"><rect class="cls-3" x="107.25" y="0.26" width="462.78" height="423.17"/><rect class="cls-2" x="107.25" y="0.26" width="462.78" height="28.15"/><path class="cls-4" d="M536.48,439.46c0,.15-77.44.26-173,.26s-173-.11-173-.26,77.43-.26,173-.26S536.48,439.32,536.48,439.46Z" transform="translate(-28.75 -43.2)"/><rect class="cls-2" x="299.26" y="311.37" width="6.85" height="36.08"/><path class="cls-4" d="M334.87,390.64a4.57,4.57,0,0,1,0-.74v-2.08c0-1.84,0-4.42-.08-7.63,0-6.48-.07-15.45-.11-25.62l.26.25H328c.51-.52.14-.14.26-.25h0v20.92c0,6.15-.06,11.36-.08,15.18l-.15-.14,5,.08h.08l-5.11.07h-.13v-.15c0-3.82-.05-9-.08-15.18V354.48h0l.27-.27h7.1v.26c0,10.24-.08,19.27-.11,25.8,0,3.18-.06,5.75-.07,7.58v2A5.18,5.18,0,0,1,334.87,390.64Z" transform="translate(-28.75 -43.2)"/><path class="cls-4" d="M347.3,349.1h-32a8.6,8.6,0,0,1-8.6-8.59h49.2A8.6,8.6,0,0,1,347.3,349.1Z" transform="translate(-28.75 -43.2)"/><path class="cls-5" d="M375.55,342.19H319.71V330.25h55.84a6,6,0,0,1,6,6h0A6,6,0,0,1,375.55,342.19Z" transform="translate(-28.75 -43.2)"/><path class="cls-5" d="M276.31,244.47A5.94,5.94,0,0,0,271.2,251l8.06,73.26a20.19,20.19,0,0,0,20.06,17.93h21.3a6,6,0,0,0,6-6h0a6,6,0,0,0-6-6H302.53a10.26,10.26,0,0,1-10.17-8.9L283,249.58a5.94,5.94,0,0,0-6.67-5.11h0Z" transform="translate(-28.75 -43.2)"/><path class="cls-5" d="M344.17,330.83l-60.71.85-5.93-87.27,50.81-.32a9.24,9.24,0,0,1,9.18,9.27Z" transform="translate(-28.75 -43.2)"/><g class="cls-6"><path class="cls-5" d="M276.82,244.47a5.94,5.94,0,0,0-5.11,6.53l8.06,73.26a20.19,20.19,0,0,0,20.06,17.93h21.3a6,6,0,0,0,6-6h0a6,6,0,0,0-6-6H301.74c-5.14,0-8.75-3.64-9.43-8.74l-8.8-71.87a5.94,5.94,0,0,0-6.67-5.11h0Z" transform="translate(-28.75 -43.2)"/></g><rect class="cls-4" x="296.05" y="305.9" width="13.27" height="6.9"/><rect class="cls-2" x="296.05" y="345.42" width="13.09" height="31.61" rx="3.97"/><path class="cls-4" d="M333.93,420.23a3.6,3.6,0,0,0,.82-.14,4,4,0,0,0,2.83-2.64,6.12,6.12,0,0,0,.17-2v-5c0-3.76,0-8.2-.06-13.13v-3.79a6.26,6.26,0,0,0-.14-1.88,3.61,3.61,0,0,0-.92-1.61,3.72,3.72,0,0,0-1.61-1,6.74,6.74,0,0,0-2-.15H328.8a3.69,3.69,0,0,0-3.24,1.91,3.85,3.85,0,0,0-.47,1.85v9.75c0,4.93,0,9.37,0,13.12a4.72,4.72,0,0,0,.43,2.51,3.85,3.85,0,0,0,3.52,2h1.74l2.41.05a4.74,4.74,0,0,1,.84.05,5.89,5.89,0,0,1-.84,0l-2.41.05H329a4.12,4.12,0,0,1-3.81-2.13,4.46,4.46,0,0,1-.44-1.27,8.16,8.16,0,0,1-.07-1.4c0-3.75,0-8.19-.06-13.12v-9.75a4.22,4.22,0,0,1,4.16-4.28H333a7.28,7.28,0,0,1,2.13.17,4.08,4.08,0,0,1,2.83,2.93,7.47,7.47,0,0,1,.15,2v3.79c0,4.93,0,9.37-.05,13.13v5a6.36,6.36,0,0,1-.22,2.08,4.24,4.24,0,0,1-.93,1.52,4,4,0,0,1-2.12,1.15A2.81,2.81,0,0,1,333.93,420.23Z" transform="translate(-28.75 -43.2)"/><path class="cls-2" d="M369.55,418.27h-77.9a7.42,7.42,0,0,0-5.61,2.26c-2.89,3-2.71,8-2.7,8.18l3.55-.15c0-1,.19-4,1.72-5.58a4,4,0,0,1,3-1.16h20.44v9.05h3.55v-9.05h53.91a4.16,4.16,0,0,1,4.14,4.14v2.67h3.55V426A7.71,7.71,0,0,0,369.55,418.27Z" transform="translate(-28.75 -43.2)"/><path class="cls-4" d="M369.55,418.27a8.34,8.34,0,0,1,1,0,7.67,7.67,0,0,1,2.72.83,7.94,7.94,0,0,1,3.24,3.28,7.7,7.7,0,0,1,.84,2.85c.07,1.07,0,2.17,0,3.36v.13h-3.81v-.14c-.1-1.73.4-3.85-1-5.33a4,4,0,0,0-2.63-1.29H315.68l.24-.25V431h-4.06v-9.31l.26.26H291.31a3.87,3.87,0,0,0-2,.63,4.12,4.12,0,0,0-1.32,1.63,9.78,9.78,0,0,0-.85,4.2v.26h-.24l-3.55.15h-.26v-.26a14.55,14.55,0,0,1,.77-4.94,9,9,0,0,1,2.73-4.09,7.74,7.74,0,0,1,4.54-1.65h22.35L343,418l19.54.07,5.25.05h-5.25l-19.54.08-29.47.06H291.16a7.15,7.15,0,0,0-4.25,1.56,8.39,8.39,0,0,0-2.58,3.86,13.71,13.71,0,0,0-.72,4.75l-.27-.24,3.54-.15-.24.26a10.2,10.2,0,0,1,.9-4.45A4.58,4.58,0,0,1,289,422a4.41,4.41,0,0,1,2.26-.72h21.07v9.31l-.25-.25h3.54l-.25.25v-9.3h54.51a4.32,4.32,0,0,1,3.94,4.2v2.76l-.14-.14h3.55l-.13.12c0-1.18.05-2.31,0-3.34a7.34,7.34,0,0,0-.79-2.78,7.76,7.76,0,0,0-3.12-3.25,7.66,7.66,0,0,0-2.67-.89C369.88,418.29,369.55,418.29,369.55,418.27Z" transform="translate(-28.75 -43.2)"/><path class="cls-4" d="M320.7,435.09a7,7,0,1,1-7-6.94h0A7,7,0,0,1,320.7,435.09Z" transform="translate(-28.75 -43.2)"/><path class="cls-4" d="M292.06,433.4a6.95,6.95,0,1,1-6.95-6.95,6.95,6.95,0,0,1,6.95,6.95Z" transform="translate(-28.75 -43.2)"/><path class="cls-4" d="M381.61,433.65a7,7,0,1,1-7-6.94h0A7,7,0,0,1,381.61,433.65Z" transform="translate(-28.75 -43.2)"/><path class="cls-4" d="M377.05,330.25c0,.14-17.12.32-38.23.4s-38.23,0-38.23-.12,17.11-.32,38.23-.4S377.05,330.1,377.05,330.25Z" transform="translate(-28.75 -43.2)"/><path class="cls-4" d="M291.88,320.32c-.14,0-2.25-15.8-4.7-35.33s-4.33-35.39-4.19-35.41,2.25,15.8,4.7,35.34S292,320.3,291.88,320.32Z" transform="translate(-28.75 -43.2)"/><path class="cls-4" d="M282.35,244.3a2.52,2.52,0,0,1,.54-.14,11.91,11.91,0,0,1,1.58-.16,15.53,15.53,0,0,1,5.77.89,8.25,8.25,0,0,1,3.36,2.28,20.33,20.33,0,0,1,2.57,3.87c1.5,2.89,3.17,6,5,9.29,3.67,6.51,7.12,12.35,9.46,16.67,1.19,2.15,2.1,3.91,2.72,5.14.28.57.5,1,.69,1.42a1.93,1.93,0,0,1,.2.52,4.66,4.66,0,0,1-.3-.47l-.77-1.38-2.86-5.05c-2.42-4.27-5.92-10.07-9.6-16.6-1.84-3.26-3.5-6.43-5-9.31a19,19,0,0,0-2.48-3.81,7.8,7.8,0,0,0-3.17-2.23,16.37,16.37,0,0,0-5.63-1C283.11,244.19,282.36,244.35,282.35,244.3Z" transform="translate(-28.75 -43.2)"/><path class="cls-4" d="M271.61,248.1c.13.07-4.47,8.09-10.26,17.9s-10.59,17.72-10.72,17.65,4.47-8.09,10.27-17.91S271.49,248,271.61,248.1Z" transform="translate(-28.75 -43.2)"/><rect class="cls-1" x="213.87" y="240.44" width="83.23" height="24.54"/><path class="cls-4" d="M265.07,291.26,261,300.68h-2.15l-4.06-9.42h2.35L260,298l2.9-6.73Z" transform="translate(-28.75 -43.2)"/><path class="cls-4" d="M271.73,298.66h-4.37l-.83,2H264.3l4.19-9.42h2.15l4.21,9.42h-2.29ZM271,297l-1.49-3.61L268.06,297Z" transform="translate(-28.75 -43.2)"/><path class="cls-4" d="M275.1,296a5.18,5.18,0,0,1,9-3.2l-1.4,1.29a3,3,0,1,0,0,3.79l1.4,1.29a5.17,5.17,0,0,1-9-3.19Z" transform="translate(-28.75 -43.2)"/><path class="cls-4" d="M291.55,298.66h-4.37l-.83,2h-2.23l4.19-9.42h2.15l4.21,9.42h-2.29Zm-.68-1.65-1.5-3.61-1.49,3.6Z" transform="translate(-28.75 -43.2)"/><path class="cls-4" d="M304.28,291.26v9.42h-1.79L297.8,295v5.72h-2.15V291.3h1.8l4.68,5.72V291.3Z" transform="translate(-28.75 -43.2)"/><path class="cls-4" d="M308.45,293h-3v-1.78h8.2V293h-3v7.64h-2.18Z" transform="translate(-28.75 -43.2)"/><path class="cls-4" d="M323.16,306v-5.29c0-3.44,0-8.43-.08-14.73l.15.15-78.5.11c.11-.12-.27.26.25-.26h0v20l-.26-.25,56,.11,16.51.07h.12L300.9,306l-56.16.12h-.25V285.92h0c.52-.52.15-.15.27-.26l78.5.1h.16v.16c0,6.34-.07,11.36-.09,14.82v4.9A1.49,1.49,0,0,1,323.16,306Z" transform="translate(-28.75 -43.2)"/><path class="cls-7" d="M331.3,161.88h6.33L331.36,167h-4.53Z" transform="translate(-28.75 -43.2)"/><path class="cls-5" d="M260.23,210.16v13.17h-8.06V211.48c0-3.32-1.45-4.72-3.78-4.72-2.59,0-4.59,1.62-4.59,5.44v11.13h-8.07V191.82h8.07v10.61a10,10,0,0,1,6.92-2.5C256.11,199.93,260.23,203,260.23,210.16Z" transform="translate(-28.75 -43.2)"/><path class="cls-5" d="M264.4,193.47c0-2.42,2-4.29,4.92-4.29s4.93,1.74,4.93,4.16-1.95,4.42-4.93,4.42S264.4,195.89,264.4,193.47Zm.89,6.84h8.07v23h-8.07Z" transform="translate(-28.75 -43.2)"/><path class="cls-5" d="M294,199.93v7.26a14.07,14.07,0,0,0-1.83-.13c-3.27,0-5.52,1.66-5.52,5.69v10.58h-8.07v-23h7.69v2.76C287.93,201,290.6,199.93,294,199.93Z" transform="translate(-28.75 -43.2)"/><path class="cls-5" d="M296.42,193.47c0-2.42,1.95-4.29,4.93-4.29s4.92,1.74,4.92,4.16-1.95,4.42-4.92,4.42S296.42,195.89,296.42,193.47Zm.89,6.84h8.07v23h-8.07Z" transform="translate(-28.75 -43.2)"/><path class="cls-5" d="M335.11,210.16v13.17H327V211.48c0-3.32-1.44-4.72-3.78-4.72-2.59,0-4.59,1.62-4.59,5.44v11.13h-8.06v-23h7.68v2.5a9.89,9.89,0,0,1,7.31-2.88C331,199.93,335.11,203,335.11,210.16Z" transform="translate(-28.75 -43.2)"/><path class="cls-5" d="M365.26,200.31v18.81c0,8.71-4.92,12.83-13.5,12.83-4.42,0-8.62-1-11.43-3l2.93-5.65a13.37,13.37,0,0,0,7.78,2.47c4.33,0,6.15-2,6.15-5.57v-.76a8.61,8.61,0,0,1-6.83,2.72c-6.12,0-11.3-4.34-11.3-11.13S344.24,200,350.36,200c3.18,0,5.64,1,7.22,3.18v-2.8Zm-8,10.7c0-2.8-2.13-4.67-5-4.67s-5.06,1.87-5.06,4.67,2.17,4.71,5.06,4.71a4.68,4.68,0,0,0,5-4.33c0-.13,0-.26,0-.39Z" transform="translate(-28.75 -43.2)"/><path class="cls-5" d="M369,218.91a4.84,4.84,0,1,1,4.83,4.83A4.83,4.83,0,0,1,369,218.91Z" transform="translate(-28.75 -43.2)"/><path class="cls-7" d="M345.7,168.81v5.71a9.73,9.73,0,0,0-1.43-.1c-2.57,0-4.33,1.3-4.33,4.46v8.3H333.6V169.11h6v2.17A7.49,7.49,0,0,1,345.7,168.81Z" transform="translate(-28.75 -43.2)"/><path class="cls-7" d="M366.51,179.75H353.37c.54,1.83,2.1,2.9,4.44,2.9a5.78,5.78,0,0,0,4.16-1.57l3.34,3.47c-1.74,1.93-4.27,2.94-7.7,2.94-6.44,0-10.61-4-10.61-9.37s4.24-9.31,9.94-9.31c5.33,0,9.67,3.41,9.67,9.37C366.61,178.65,366.54,179.25,366.51,179.75Zm-13.24-3.33h7.4a3.76,3.76,0,0,0-7.4,0Z" transform="translate(-28.75 -43.2)"/><path class="cls-7" d="M306.3,169.11l-6.44,18.07h-6.13l-3.4-9.83-3.54,9.83h-6.13l-6.44-18.07h6l3.7,10.94,3.84-10.94h5.4l3.73,11,3.84-11Z" transform="translate(-28.75 -43.2)"/><path class="cls-7" d="M326.1,179.75H313c.54,1.83,2.1,2.9,4.44,2.9a5.8,5.8,0,0,0,4.17-1.57l3.33,3.47c-1.73,1.93-4.27,2.94-7.7,2.94-6.44,0-10.6-4-10.6-9.37s4.23-9.31,9.93-9.31c5.34,0,9.67,3.41,9.67,9.37C326.2,178.65,326.13,179.25,326.1,179.75Zm-13.24-3.33h7.41a3.76,3.76,0,0,0-7.41,0Z" transform="translate(-28.75 -43.2)"/><path class="cls-2" d="M278.91,135.66l-1-21.25a3.44,3.44,0,0,0-3.18-3.27h0a3.44,3.44,0,0,0-3.68,3l-2.69,21.3a2.69,2.69,0,0,0,2.38,3l.3,0h5.18a2.71,2.71,0,0,0,2.69-2.73Z" transform="translate(-28.75 -43.2)"/><path class="cls-2" d="M269.28,99.11a5.18,5.18,0,1,1,3.18,6.6,5.18,5.18,0,0,1-3.18-6.6Z" transform="translate(-28.75 -43.2)"/><path class="cls-8" d="M223.29,162.51,210.91,152a2.64,2.64,0,0,0-3.48.08h0a2.62,2.62,0,0,0-.23,3.61l10.48,12.58a2.07,2.07,0,0,0,2.92.25,1.29,1.29,0,0,0,.17-.16l2.69-2.89a2.05,2.05,0,0,0-.1-2.9Z" transform="translate(-28.75 -43.2)"/><path class="cls-8" d="M197.89,148.88a4,4,0,1,1,5.42,1.62l-.08,0A4,4,0,0,1,197.89,148.88Z" transform="translate(-28.75 -43.2)"/><path class="cls-2" d="M212.79,113.09l19,32.24a6.06,6.06,0,0,0,7.64,2.48h0a6.07,6.07,0,0,0,3.26-7.7l-13.31-35.36a4.75,4.75,0,0,0-6.14-2.76,3.43,3.43,0,0,0-.52.23l-8.07,4.24a4.77,4.77,0,0,0-2,6.44Z" transform="translate(-28.75 -43.2)"/><path class="cls-2" d="M257.81,162.06a9.12,9.12,0,1,1-10.38-7.66h0A9.11,9.11,0,0,1,257.81,162.06Z" transform="translate(-28.75 -43.2)"/><path class="cls-4" d="M598.77,466.63c0-1.88-.09-168.69-.22-423.17l.22.22L136,43.72h0l.26-.26V466.63l-.22-.23,462.77.23L136,466.86h-.23V43.2H599v.22C598.86,297.94,598.77,464.75,598.77,466.63Z" transform="translate(-28.75 -43.2)"/><circle class="cls-3" cx="120.11" cy="14.14" r="3.83"/><circle class="cls-3" cx="133.27" cy="14.14" r="3.83"/><circle class="cls-3" cx="146.43" cy="14.14" r="3.83"/></g><g id="freepik--Character--inject-95"><path class="cls-9" d="M421.56,137a42.71,42.71,0,0,1-9.34-3.55A21.58,21.58,0,0,1,417,135,21,21,0,0,1,421.56,137Z" transform="translate(-28.75 -43.2)"/><path class="cls-10" d="M408.77,157.14c-1-.11-3.7,1.23-5.95,3.9l-.11.12c-1.59,1.79-2.58-3.71-2.68-5.74a2.11,2.11,0,0,0-2.28-1.92,1.79,1.79,0,0,0-.46.09l-7,2.68-2-.07a2,2,0,0,0-1.45,2.3l2.48,10.89-.13,2.92,13.4,2.78.72-7.28c.26-.83.6-1.81,1-2.92a9.35,9.35,0,0,1,1.69-2.74,17.23,17.23,0,0,1,2.62-2.5l.23-.13a1.27,1.27,0,0,0,.41-.31,1.18,1.18,0,0,0,.17-1.66A1.15,1.15,0,0,0,408.77,157.14Z" transform="translate(-28.75 -43.2)"/><path class="cls-5" d="M405.83,126.44s-8-1-20-10.56S367.3,92.72,366,92.88s-7.5-2-16.41,23.46-4,30.68-1.74,30.43,17-5.91,26.54-5.72,22.18,4,22.18,4Z" transform="translate(-28.75 -43.2)"/><path class="cls-4" d="M423.73,138.16l-2.2,5.33-1,2.39a6.66,6.66,0,0,1-8.37,3.75l-17.35-4.27,7.68-23.25,17.62,7.36A6.68,6.68,0,0,1,423.73,138.16Z" transform="translate(-28.75 -43.2)"/><path class="cls-4" d="M416.89,146l-5.81,10.3-2.65-.85L390.3,169l-4.51-9.8s10.55-4,12.63-7.65-.11-4.54-.11-4.54l5.1-5.35Z" transform="translate(-28.75 -43.2)"/><path class="cls-4" d="M350.47,116.73c-4.72,13.77-6.1,25.77-3.07,26.81s9.3-9.29,14-23.06,6.1-25.77,3.07-26.81S355.19,103,350.47,116.73Z" transform="translate(-28.75 -43.2)"/><polygon class="cls-9" points="397.11 102.17 392.42 101.17 394.74 95.54 398.35 97.34 397.11 102.17"/><path class="cls-9" d="M420.47,140.27c-.06.16-2.41-.51-5.26-1.49a25.64,25.64,0,0,1-5.07-2.05,26.07,26.07,0,0,1,5.26,1.49A25.64,25.64,0,0,1,420.47,140.27Z" transform="translate(-28.75 -43.2)"/><path class="cls-9" d="M419,143.79c0,.08-.56,0-1.45-.18l-1.56-.36c-.58-.15-1.19-.39-1.84-.61a19.51,19.51,0,0,1-4.56-2c.06-.16,2.18.55,4.76,1.46.64.23,1.24.48,1.81.66s1.07.32,1.49.47A3.55,3.55,0,0,1,419,143.79Z" transform="translate(-28.75 -43.2)"/><path class="cls-1" d="M362.35,112.64s-7.21-3.58-10.07,6S356.73,129,356.73,129A61.2,61.2,0,0,0,362.35,112.64Z" transform="translate(-28.75 -43.2)"/><path class="cls-4" d="M368.56,101a10.69,10.69,0,0,1-.1,1.79c-.11,1.14-.26,2.8-.51,4.85-.19,1-.41,2.12-.63,3.31-.12.59-.24,1.21-.36,1.84-.07.32-.13.64-.19,1s-.18.65-.27,1l-1.16,4.11c-.1.36-.21.72-.31,1.08s-.26.71-.38,1.08l-.82,2.18c-.27.73-.55,1.46-.82,2.18-.14.36-.25.72-.41,1.06l-.48,1-1.83,3.87c-.14.3-.28.61-.44.9s-.32.58-.49.86l-.94,1.63c-.61,1-1.17,2-1.69,2.91-1.16,1.7-2.13,3-2.8,4a10.61,10.61,0,0,1-1.09,1.41,9.53,9.53,0,0,1,.9-1.54l2.64-4.09L358,134.5l.91-1.63.47-.85c.16-.29.29-.6.43-.91.57-1.23,1.17-2.52,1.78-3.85l.47-1c.16-.34.27-.71.41-1.06.27-.71.54-1.44.81-2.17l.82-2.16c.12-.36.28-.71.38-1.07s.21-.72.31-1.07l1.19-4.08c.09-.32.2-.64.27-1s.14-.64.2-1c.14-.62.26-1.23.39-1.82.25-1.18.49-2.27.7-3.28.29-2,.53-3.64.69-4.81A12.71,12.71,0,0,1,368.56,101Z" transform="translate(-28.75 -43.2)"/><path class="cls-10" d="M395.07,151.38a1.55,1.55,0,0,0-.94,1.88c.41,1.51,1.09,3.87,1.62,5.32a4.07,4.07,0,0,0,.69,1.3,1.3,1.3,0,0,0,1.29.45,1.43,1.43,0,0,0,.87-1.19,4.1,4.1,0,0,0-.18-1.56c-.34-1.4-1-3.51-1.5-5.23a1.44,1.44,0,0,0-1.76-1l-.09,0Z" transform="translate(-28.75 -43.2)"/><path class="cls-10" d="M392.83,154a1.55,1.55,0,0,0-.95,1.88c.42,1.51,1.1,3.87,1.63,5.31a3.81,3.81,0,0,0,.68,1.31,1.3,1.3,0,0,0,1.29.45,1.4,1.4,0,0,0,.87-1.19,3.91,3.91,0,0,0-.17-1.56c-.35-1.4-1-3.52-1.5-5.24a1.44,1.44,0,0,0-1.76-1l-.09,0Z" transform="translate(-28.75 -43.2)"/><path class="cls-10" d="M390.73,155.53a1.32,1.32,0,0,0-.85,1.63c.38,1.3,1,3.36,1.48,4.61a3.61,3.61,0,0,0,.62,1.12,1.21,1.21,0,0,0,1.17.4,1.24,1.24,0,0,0,.79-1,3.63,3.63,0,0,0-.16-1.35c-.32-1.22-.89-3-1.38-4.54a1.33,1.33,0,0,0-1.67-.84Z" transform="translate(-28.75 -43.2)"/><path class="cls-10" d="M388.08,155.93a1.32,1.32,0,0,0-.86,1.63c.39,1.31,1,3.38,1.5,4.63a3.24,3.24,0,0,0,.62,1.14,1.1,1.1,0,0,0,2-.64,3.42,3.42,0,0,0-.17-1.35c-.32-1.23-.89-3.07-1.38-4.57a1.33,1.33,0,0,0-1.66-.85h-.05Z" transform="translate(-28.75 -43.2)"/><path class="cls-11" d="M396.29,159.93a8.49,8.49,0,0,1-1.19-2.68,7.82,7.82,0,0,1-.67-2.85,8,8,0,0,1,1.19,2.68A7.82,7.82,0,0,1,396.29,159.93Z" transform="translate(-28.75 -43.2)"/><path class="cls-11" d="M393.89,162a10.11,10.11,0,0,1-1.26-3.08,10.32,10.32,0,0,1-.74-3.24,10.11,10.11,0,0,1,1.26,3.08A9.8,9.8,0,0,1,393.89,162Z" transform="translate(-28.75 -43.2)"/><path class="cls-11" d="M391.53,162.16a6.93,6.93,0,0,1-1.3-2.67,6.61,6.61,0,0,1-.57-2.91,10.46,10.46,0,0,1,1.09,2.74A9.67,9.67,0,0,1,391.53,162.16Z" transform="translate(-28.75 -43.2)"/><path class="cls-4" d="M474.91,125.79c-3.81-6.44-10.69-10.62-17.91-12.61-3-.83-5.1-.6-8.23-.25a13.27,13.27,0,0,0-8.26,3.83,22.32,22.32,0,0,0-5.86,9.42,62,62,0,0,0-2.28,11.28,21,21,0,0,0,1.92,11.22l9.38,3.14c5.3,1,10.67,2,16,1.57S470.5,151,474,146.82C478.83,141.1,478.72,132.23,474.91,125.79Z" transform="translate(-28.75 -43.2)"/><path class="cls-4" d="M480,154a7.27,7.27,0,0,0-2.43-5.92,5.25,5.25,0,0,0-6.17-.4l-1.79,1.57a6.3,6.3,0,0,0-4.53,5.73,6.88,6.88,0,0,0,3.88,6.3,7.63,7.63,0,0,0,7.45-.64A8.56,8.56,0,0,0,480,154Z" transform="translate(-28.75 -43.2)"/><path class="cls-9" d="M477.08,160.24a3.25,3.25,0,0,0,.81-1.84,8.79,8.79,0,0,0-1.54-4.67,13.37,13.37,0,0,0-3.39-3.68c-1-.78-1.78-1.12-1.74-1.2a5.55,5.55,0,0,1,1.93.92,11.77,11.77,0,0,1,4.8,6.32,5.22,5.22,0,0,1,.28,2.35,2.69,2.69,0,0,1-.67,1.46C477.3,160.18,477.1,160.26,477.08,160.24Z" transform="translate(-28.75 -43.2)"/><path class="cls-9" d="M472,162.38a21.81,21.81,0,0,0,.54-6.44,20.88,20.88,0,0,0-1.87-6.17,4.94,4.94,0,0,1,1.06,1.62,13.67,13.67,0,0,1,1,9.18A5.39,5.39,0,0,1,472,162.38Z" transform="translate(-28.75 -43.2)"/><path class="cls-10" d="M440.49,171.93c.58-3.37,1.87-10.6,1.87-10.58s-7.73-2.07-8.36-12.47c-.32-5.17.75-13.5,1.84-20.29,1-6.11,7.46-13.65,15-12.52l3.41.12,12.07,7.07a3.61,3.61,0,0,1,2.87,4L462.58,171l-18.71,36.61-4.23-26Z" transform="translate(-28.75 -43.2)"/><path class="cls-4" d="M439.32,136.05a1.32,1.32,0,0,0,1.14,1.44,1.26,1.26,0,0,0,1.46-1v0a1.33,1.33,0,0,0-1.14-1.45,1.26,1.26,0,0,0-1.46,1Z" transform="translate(-28.75 -43.2)"/><path class="cls-4" d="M437.76,132.74c.15.19,1.22-.45,2.63-.31s2.38.95,2.55.79-.05-.4-.47-.77a3.59,3.59,0,0,0-2-.84,3.55,3.55,0,0,0-2.11.46C437.87,132.36,437.69,132.66,437.76,132.74Z" transform="translate(-28.75 -43.2)"/><path class="cls-4" d="M445,144.71a9.27,9.27,0,0,0-2.26-.64c-.36-.07-.69-.17-.73-.43a1.81,1.81,0,0,1,.35-1c.42-.84.86-1.73,1.33-2.65,1.86-3.77,3.25-6.89,3.09-7a47.14,47.14,0,0,0-3.64,6.7l-1.29,2.66a2.09,2.09,0,0,0-.33,1.4.92.92,0,0,0,.55.59,2.49,2.49,0,0,0,.6.14A9.13,9.13,0,0,0,445,144.71Z" transform="translate(-28.75 -43.2)"/><path class="cls-11" d="M442.36,161.35A26.27,26.27,0,0,0,456.44,159s-4.34,6.74-14.51,4.79Z" transform="translate(-28.75 -43.2)"/><path class="cls-4" d="M438.87,127.75c.22.35,1.23.11,2.4.21s2.14.42,2.4.11c.12-.15,0-.49-.41-.84a3.5,3.5,0,0,0-3.87-.25C439,127.27,438.78,127.59,438.87,127.75Z" transform="translate(-28.75 -43.2)"/><path class="cls-4" d="M455.49,137.08a1.32,1.32,0,0,1-1.44,1.15,1.27,1.27,0,0,1-1.19-1.34v0a1.31,1.31,0,0,1,1.44-1.15,1.27,1.27,0,0,1,1.19,1.34Z" transform="translate(-28.75 -43.2)"/><path class="cls-4" d="M456.48,133.92c-.19.15-1.08-.72-2.49-.91s-2.53.38-2.66.19.14-.37.63-.64a3.63,3.63,0,0,1,2.17-.36,3.53,3.53,0,0,1,1.95.93C456.46,133.52,456.57,133.85,456.48,133.92Z" transform="translate(-28.75 -43.2)"/><path class="cls-4" d="M456.27,129.1c-.29.28-1.22-.18-2.38-.35s-2.19-.08-2.37-.44c-.08-.18.12-.48.59-.72a3.2,3.2,0,0,1,2-.26,3.33,3.33,0,0,1,1.82.89C456.3,128.61,456.4,129,456.27,129.1Z" transform="translate(-28.75 -43.2)"/><path class="cls-4" d="M467,141.58l-2,1.55c-6.49-8.43-18.56-28.9-17.9-27.69a22.4,22.4,0,0,1,11,.47c5.5,1.83,15.79,6.29,14.61,12.93S467,141.58,467,141.58Z" transform="translate(-28.75 -43.2)"/><path class="cls-9" d="M471.24,148.11a14.86,14.86,0,0,1,.18-1.62,25,25,0,0,0,.08-4.41,30,30,0,0,0-4.62-13.65,47.83,47.83,0,0,0-9.71-10.81c-1.44-1.2-2.63-2.13-3.47-2.77a13.61,13.61,0,0,1-1.27-1,.66.66,0,0,1,.37.2c.23.2.58.37,1,.67.87.59,2.1,1.48,3.57,2.66a44.77,44.77,0,0,1,9.91,10.82,29.11,29.11,0,0,1,4.55,13.88,21.46,21.46,0,0,1-.23,4.46c-.07.52-.19.91-.24,1.19A1.29,1.29,0,0,1,471.24,148.11Z" transform="translate(-28.75 -43.2)"/><path class="cls-9" d="M456.86,114.08a2,2,0,0,1,.38.2c.25.14.6.35,1.05.64.89.58,2.17,1.45,3.68,2.63a59,59,0,0,1,5,4.45,34,34,0,0,1,5.31,6.29,15.73,15.73,0,0,1,1.77,3.92,14.63,14.63,0,0,1,.56,4,23.45,23.45,0,0,1-1,6.65c-.55,1.84-1.11,3.28-1.51,4.27-.2.49-.37.87-.48,1.13a2.75,2.75,0,0,1-.2.38A10.53,10.53,0,0,1,472,147c.34-1,.85-2.46,1.35-4.29a23.77,23.77,0,0,0,.92-6.55,14.68,14.68,0,0,0-.57-3.84,15.54,15.54,0,0,0-1.73-3.8,35.68,35.68,0,0,0-5.2-6.23,66,66,0,0,0-5-4.46c-1.47-1.2-2.72-2.11-3.58-2.73A12,12,0,0,1,456.86,114.08Z" transform="translate(-28.75 -43.2)"/><path class="cls-9" d="M467.15,141.77a6.19,6.19,0,0,1-.77-1l-2-2.86c-1.63-2.42-3.86-5.79-6.29-9.53s-4.62-7.13-6.18-9.61l-1.83-2.94a7.51,7.51,0,0,1-.62-1.11,6.19,6.19,0,0,1,.77,1l2,2.86c1.63,2.42,3.86,5.79,6.3,9.53s4.62,7.14,6.18,9.61l1.83,2.95A6.19,6.19,0,0,1,467.15,141.77Z" transform="translate(-28.75 -43.2)"/><path class="cls-10" d="M465.09,144.28c.08-.76,1.14-2.48,1.9-2.52,2-.12,5.66.39,5.19,5.51-.63,7-7.51,4.91-7.51,4.71S464.83,146.91,465.09,144.28Z" transform="translate(-28.75 -43.2)"/><path class="cls-11" d="M466.6,149.35a1.76,1.76,0,0,0,.31.21,1.21,1.21,0,0,0,.91.1,3,3,0,0,0,1.64-2.57,4.13,4.13,0,0,0-.19-1.78,1.38,1.38,0,0,0-.83-1,.64.64,0,0,0-.75.27c-.11.19-.08.33-.11.34s-.14-.13-.06-.41a.74.74,0,0,1,.31-.41.92.92,0,0,1,.69-.12,1.68,1.68,0,0,1,1.18,1.2,4,4,0,0,1,.24,2c-.17,1.41-1,2.66-2,2.86a1.3,1.3,0,0,1-1.1-.28C466.6,149.52,466.58,149.36,466.6,149.35Z" transform="translate(-28.75 -43.2)"/><path class="cls-10" d="M481.51,403.08c-.14,1.1-2.85,31.85-2.85,31.85H464.57l-2.47-31.72Z" transform="translate(-28.75 -43.2)"/><path class="cls-5" d="M464.53,430.35s9.9,7,14.68.95l1.26,2.94,5.62,21a2.81,2.81,0,0,1-1.58,3.37,2.72,2.72,0,0,1-2.88-.55c-4.07-3.88-19-18.19-18.82-20.13l.05-5.15a2.67,2.67,0,0,1,1.67-2.42Z" transform="translate(-28.75 -43.2)"/><path class="cls-7" d="M484,458.74l-21.2-22.61v1.12a3.19,3.19,0,0,0,1,2.49c1.72,2.31,6.47,7.49,17.74,18.31a2.71,2.71,0,0,0,2.47.69Z" transform="translate(-28.75 -43.2)"/><path class="cls-7" d="M465.91,432.77a1.64,1.64,0,0,1,.46,2.15,1.59,1.59,0,0,1-2.13.48,1.74,1.74,0,0,1-.47-2.28,1.63,1.63,0,0,1,2.26-.25" transform="translate(-28.75 -43.2)"/><path class="cls-7" d="M477.91,447.16a8.24,8.24,0,0,1,2.32-2.08,8.58,8.58,0,0,1,3-.6c0-.06-.31-.27-.93-.35a4.33,4.33,0,0,0-4.16,2.07C477.88,446.74,477.84,447.14,477.91,447.16Z" transform="translate(-28.75 -43.2)"/><path class="cls-7" d="M479.81,450.71a22.28,22.28,0,0,1,2.35-1.16,22.66,22.66,0,0,1,2.59-.34c.08-.14-1.2-.69-2.76-.21S479.67,450.64,479.81,450.71Z" transform="translate(-28.75 -43.2)"/><path class="cls-7" d="M474.37,442.61a28.21,28.21,0,0,1,3.5-2,26.54,26.54,0,0,1,3.94-.93,7.46,7.46,0,0,0-7.44,2.93Z" transform="translate(-28.75 -43.2)"/><path class="cls-7" d="M473.89,436.22c.08.16,1.54-.46,3.45-.53s3.42.37,3.48.21a6.74,6.74,0,0,0-6.93.32Z" transform="translate(-28.75 -43.2)"/><path class="cls-7" d="M478.43,435.63a2.44,2.44,0,0,0-.15-1A7,7,0,0,0,477,432.2a3.07,3.07,0,0,0-1.58-1.21,1.1,1.1,0,0,0-1.17.46,1.84,1.84,0,0,0-.19,1.26,3.85,3.85,0,0,0,4,2.88,4.47,4.47,0,0,0,3.88-3.1,1.56,1.56,0,0,0-.17-1.28,1,1,0,0,0-1.2-.35,3.86,3.86,0,0,0-1.56,1.21,8.06,8.06,0,0,0-1.4,2.36,2.44,2.44,0,0,0-.23,1,12.39,12.39,0,0,1,1.94-3.06,3.61,3.61,0,0,1,1.38-1,.57.57,0,0,1,.66.19,1,1,0,0,1,.06.85A4,4,0,0,1,478,435a3.34,3.34,0,0,1-3.41-2.4,1.27,1.27,0,0,1,.1-.88.59.59,0,0,1,.64-.27,2.86,2.86,0,0,1,1.35,1A10.31,10.31,0,0,1,478.43,435.63Z" transform="translate(-28.75 -43.2)"/><polygon class="cls-10" points="375.39 349.87 377.82 389.13 394.88 389.01 397.76 348.22 375.39 349.87"/><path class="cls-5" d="M406.26,427.59v1.14S387,436.38,386.76,440H425l-.54-12.71A21.85,21.85,0,0,1,406.26,427.59Z" transform="translate(-28.75 -43.2)"/><path class="cls-7" d="M420.56,431.34a1.56,1.56,0,0,1,1.08,1.78,1.5,1.5,0,0,1-1.75,1.09,1.65,1.65,0,0,1-1.14-1.89,1.57,1.57,0,0,1,1.95-.93" transform="translate(-28.75 -43.2)"/><path class="cls-7" d="M425,440l-.13-3.05-36.56,1.16s-1.7.74-1.51,1.93Z" transform="translate(-28.75 -43.2)"/><path class="cls-7" d="M406.11,428.84c0,.18.94.26,1.86.86s1.41,1.39,1.58,1.31-.11-1.15-1.23-1.85S406.07,428.66,406.11,428.84Z" transform="translate(-28.75 -43.2)"/><path class="cls-7" d="M402.11,430.5c0,.18.76.49,1.4,1.28s.82,1.62,1,1.62.31-1.07-.5-2S402.11,430.32,402.11,430.5Z" transform="translate(-28.75 -43.2)"/><path class="cls-7" d="M399.84,435.29c.17,0,.43-.89,0-1.91s-1.36-1.43-1.44-1.27.47.7.85,1.54S399.65,435.28,399.84,435.29Z" transform="translate(-28.75 -43.2)"/><path class="cls-7" d="M426.51,271.57c-.51,1.47-20.74,70-20.74,70l-3.48,81.33,25.18,1.45,9-81.2,23-50.79L449.36,251H428.8Z" transform="translate(-28.75 -43.2)"/><path class="cls-7" d="M444.43,251.06c.36,1,13.27,47.5,13.27,47.5l1.79,69.34v57.37h22.95l10.69-126.52s1.89-23-1.34-30.73-16.31-21.31-16.31-21.31Z" transform="translate(-28.75 -43.2)"/><path class="cls-9" d="M446.28,255.82a11.74,11.74,0,0,1,.52,1.62c.33,1.13.77,2.63,1.29,4.44,1.16,3.83,2.7,9,4.41,14.63s3.08,11,3.88,14.79c.42,1.92.69,3.48.85,4.56a9.61,9.61,0,0,1,.19,1.69,11.64,11.64,0,0,1-.39-1.65c-.22-1.07-.55-2.62-1-4.51-.89-3.81-2.33-9-4-14.73s-3.25-10.9-4.26-14.68c-.51-1.89-.9-3.42-1.14-4.49A10.54,10.54,0,0,1,446.28,255.82Z" transform="translate(-28.75 -43.2)"/><path class="cls-9" d="M454.2,255.82a3,3,0,0,0-1.44,1,1.84,1.84,0,0,0-.2,1.76,1.9,1.9,0,0,0,3.51.16,1.85,1.85,0,0,0,0-1.77,3,3,0,0,0-1.34-1.16,1,1,0,0,1,.53.06,2.21,2.21,0,0,1,1.12.92,2.17,2.17,0,0,1,.15,2.16,2.36,2.36,0,0,1-4.39-.2,2.2,2.2,0,0,1,.35-2.14,2.24,2.24,0,0,1,1.21-.81C454,255.75,454.2,255.79,454.2,255.82Z" transform="translate(-28.75 -43.2)"/><path class="cls-9" d="M474.57,289.22a2,2,0,0,1,0,.35v4.94c0,3.43,0,8.38-.11,14.5-.18,12.24-.73,29.13-1.45,47.79s-1.32,35.56-1.6,47.79c-.14,6.12-.23,11.07-.28,14.49,0,1.68,0,3-.06,3.94v1a.19.19,0,0,1,.15.21.18.18,0,0,1-.36-.06A.18.18,0,0,1,471,424v-4.94c0-3.43,0-8.38.11-14.5.19-12.24.73-29.14,1.45-47.8s1.32-35.55,1.6-47.78c.14-6.12.24-11.07.28-14.49,0-1.68.05-3,.06-3.94v-1A1,1,0,0,1,474.57,289.22Z" transform="translate(-28.75 -43.2)"/><path class="cls-9" d="M439.16,280.87a2,2,0,0,1-.11.35l-.39,1c-.37.93-.89,2.25-1.55,3.94-1.37,3.44-3.34,8.37-5.78,14.45s-5.22,13.42-7.88,21.68a138.94,138.94,0,0,0-6.35,27.43c-.53,5-.76,9.88-1.06,14.59s-.5,9.27-.74,13.61c-.45,8.67-.85,16.48-1.19,23.06s-.7,11.87-1,15.53c-.15,1.81-.26,3.22-.34,4.22,0,.46-.08.82-.11,1.09a2.47,2.47,0,0,1-.05.38,2.41,2.41,0,0,1,0-.38,9.62,9.62,0,0,1,.05-1.1c.06-1,.14-2.41.25-4.22.21-3.67.49-9,.8-15.54s.68-14.39,1.08-23.06c.23-4.34.46-8.9.71-13.62s.52-9.61,1.05-14.61a138.8,138.8,0,0,1,6.45-27.5c2.69-8.27,5.56-15.56,8-21.66s4.52-11,5.93-14.39c.7-1.68,1.25-3,1.64-3.91l.44-1A2.07,2.07,0,0,1,439.16,280.87Z" transform="translate(-28.75 -43.2)"/><path class="cls-5" d="M473.78,169.2s13.65,2.55,16.65,5.05,30.34,38.16,30.91,45.36-2.76,9.84-4.65,11.55S482.12,255,482.12,255l-10.05-16.67,28.24-16.87-13.63-23.31Z" transform="translate(-28.75 -43.2)"/><path class="cls-12" d="M509.43,215.12a12.81,12.81,0,0,0-9.49,5.94,3.85,3.85,0,0,1,.75-1.58,10.21,10.21,0,0,1,7-4.37A3.79,3.79,0,0,1,509.43,215.12Z" transform="translate(-28.75 -43.2)"/><path class="cls-3" d="M440.7,170.93l3.62,32.84,18.47-37,11.91,12.1s7.31,43.25,7.42,43.56-5,24.74-5,24.74l-33.85,6.55-10.33-2.63-1.63-38.47-.72-29.46Z" transform="translate(-28.75 -43.2)"/><path class="cls-5" d="M436.31,172.33l-8.79,2a7.39,7.39,0,0,0-3.18,1.61c-7.5,6.42-23.72,20-23.72,20l3-24.1L388,170.39s-4.68,30.38-4.2,38.37c.57,9.28,8.89,11.56,21,6.57a157.84,157.84,0,0,0,21.67-10.68Z" transform="translate(-28.75 -43.2)"/><path class="cls-5" d="M485.33,198.28l-1.61,28.8,1.62,5.6S500.5,261.3,503,280.25l-18.76,3s-5.12-24.45-8.72-36.57S461.27,229.46,457.67,217a57.65,57.65,0,0,1-2.27-22c0-.76,7.39-28.24,7.39-28.24l1.32-5.74,6.64,6.31L487.8,173Z" transform="translate(-28.75 -43.2)"/><g class="cls-13"><path d="M494.27,251.84a97.05,97.05,0,0,1-9.71,6.61c-.2.1-.46.21-.75.32a3,3,0,0,1-3.67-1.38c-.4-.73-.81-1.5-1.08-2.08-.69-1.49-1.44-3.28-2.11-4.83l2.11-.51,3.06,5.07,8.82-6,1.68-1.15Z" transform="translate(-28.75 -43.2)"/></g><path class="cls-5" d="M440.86,167.69l-4.1,4.29-9.83,3.45s-2.4,29-1.1,35.18c1.26,5.94,3.66,13.16,3.86,21.69s-9.54,53.61-9.54,53.61l11.78,4.47s6-52.19,4.83-63.57,1.87-34.32,1.87-34.32Z" transform="translate(-28.75 -43.2)"/><path class="cls-4" d="M463.16,223a3.2,3.2,0,0,1-.43-.47,9.32,9.32,0,0,1-1-1.55,15.54,15.54,0,0,1-1.53-6.56,62,62,0,0,1,.7-10A89.48,89.48,0,0,1,471.39,173l.16.29-4.17-.13h-.3l.18-.24,2.74-3.68.74-1a1.38,1.38,0,0,1,.28-.31,1.31,1.31,0,0,1-.21.36l-.68,1-2.62,3.77-.12-.24,4.17.05h.32l-.16.28a94.12,94.12,0,0,0-7.86,19.37,93,93,0,0,0-2.52,11.91,67,67,0,0,0-.8,9.9,16.24,16.24,0,0,0,1.34,6.48A24,24,0,0,0,463.16,223Z" transform="translate(-28.75 -43.2)"/><path class="cls-4" d="M474.7,196.41a18.51,18.51,0,0,1-4.83.92,17.56,17.56,0,0,1-4.91.06,34.47,34.47,0,0,1,4.86-.58A33.23,33.23,0,0,1,474.7,196.41Z" transform="translate(-28.75 -43.2)"/><path class="cls-4" d="M486.66,189.73a9,9,0,0,1-.21,1.46c-.13.94-.3,2.3-.46,4-.32,3.38-.64,8.05-1,13.21l-.8,13.23c-.12,1.69-.22,3.06-.31,4a7.23,7.23,0,0,1-.2,1.46,9,9,0,0,1,0-1.47c0-1.05.08-2.4.14-4,.13-3.39.34-8.07.65-13.24s.7-9.84,1.12-13.22c.2-1.68.43-3,.62-4A7.2,7.2,0,0,1,486.66,189.73Z" transform="translate(-28.75 -43.2)"/><path class="cls-4" d="M508.49,222.42c-.05.15-1.89-.44-4.25-.61s-4.26.13-4.29,0a11.89,11.89,0,0,1,8.54.61Z" transform="translate(-28.75 -43.2)"/><path class="cls-4" d="M400.72,195.38a15.49,15.49,0,0,1-1.38,3.73,15.18,15.18,0,0,1-1.85,3.52,15.08,15.08,0,0,1,1.38-3.73A15.57,15.57,0,0,1,400.72,195.38Z" transform="translate(-28.75 -43.2)"/><path class="cls-4" d="M425.24,185.77c.14,0,.37,5.66.5,12.65s.13,12.66,0,12.66-.37-5.66-.51-12.65S425.1,185.78,425.24,185.77Z" transform="translate(-28.75 -43.2)"/><path class="cls-4" d="M436.9,209.55a7.93,7.93,0,0,1-.13-1.46c0-1-.08-2.38-.14-4-.1-3.37-.21-8-.29-13.16s-.12-9.8-.13-13.17v-4a7.9,7.9,0,0,1,.08-1.46,7.93,7.93,0,0,1,.13,1.46c0,1,.08,2.38.14,4,.1,3.37.2,8,.28,13.16s.13,9.79.14,13.16v4A9.06,9.06,0,0,1,436.9,209.55Z" transform="translate(-28.75 -43.2)"/><path class="cls-4" d="M510.93,235.3a3.57,3.57,0,0,1-.54.42l-1.6,1.15-6,4.21-20.52,14.17-.22.16-.14-.23-4.5-7.46-5.54-9.22-.13-.22.21-.13,20.26-12,5.94-3.46,1.6-.91a3.81,3.81,0,0,1,.57-.29,2.8,2.8,0,0,1-.53.37l-1.55,1-5.86,3.58L472.2,238.59l.09-.35c1.75,2.91,3.63,6,5.56,9.21l4.49,7.46-.37-.08,20.62-14,6.1-4.08,1.65-1.08A4.49,4.49,0,0,1,510.93,235.3Z" transform="translate(-28.75 -43.2)"/><g class="cls-13"><path d="M461.79,220.86A38.85,38.85,0,0,1,463,208.07a124.71,124.71,0,0,1,12.62-33.43,3.7,3.7,0,0,0-4.26.48,10.14,10.14,0,0,0-2.54,3.78,92.58,92.58,0,0,0-8.25,29.89,28.66,28.66,0,0,0-.15,6c.2,2.1.2,4.3,1.5,6" transform="translate(-28.75 -43.2)"/></g><g class="cls-13"><path d="M425.21,187.87c-3.11,5.4-2.7,11.9.27,17.38,0-6,0-11.25-.36-17.3" transform="translate(-28.75 -43.2)"/></g><path class="cls-11" d="M449.39,147.81a1.22,1.22,0,0,0-.57-.87,1.5,1.5,0,0,0-.66-.1,15.7,15.7,0,0,0-3.85.55l-.07.2a8.51,8.51,0,0,0,.35,1.65,3,3,0,0,0,.92,1.39,2.45,2.45,0,0,0,2.91,0A2.79,2.79,0,0,0,449.39,147.81Z" transform="translate(-28.75 -43.2)"/><path class="cls-4" d="M445.53,150.87a5.51,5.51,0,0,0,1.62-.1,2.51,2.51,0,0,0,1.35-1,2.43,2.43,0,0,0,.36-1.94,1.22,1.22,0,0,0-.5-.77,1.39,1.39,0,0,0-.9,0l-1.8.34a5.73,5.73,0,0,1-1.7.19,5.85,5.85,0,0,1,1.62-.55l1.78-.45a1.85,1.85,0,0,1,1.23,0,1.63,1.63,0,0,1,.77,1.09,2.82,2.82,0,0,1-.47,2.35,2.75,2.75,0,0,1-1.65,1A2,2,0,0,1,445.53,150.87Z" transform="translate(-28.75 -43.2)"/><path class="cls-1" d="M467.35,151.87a1.78,1.78,0,0,0-1.88-1.13h0a1.54,1.54,0,0,0-1.11.68,1.79,1.79,0,0,0,.19,2.11,1.73,1.73,0,0,0,2.08.31A1.68,1.68,0,0,0,467.35,151.87Z" transform="translate(-28.75 -43.2)"/><path class="cls-10" d="M472.51,239.36l-11.57-10.25-9.77.84s.34,1.6,1.69,1.85,6.23.34,6.23.34l2.29,2.27-5.83-.58-7.41,4.37s-.17,1.35,1.77,1a38.35,38.35,0,0,0,5.64-1.85l4.31.25-4.7.68-6.09,4.29a3.18,3.18,0,0,0,3.2.85c1.94-.59,4.29-1.52,4.29-1.52l5.31-.51-5.31,1.35-3.95,4.89a2.24,2.24,0,0,0,2.55,0,27.34,27.34,0,0,0,2.25-1.77l5.89-.26s6.51,4.72,8.77,5.23,7-.87,7-.87Z" transform="translate(-28.75 -43.2)"/></g><g id="freepik--job-offers--inject-95"><rect class="cls-1" x="493.79" y="244.39" width="179.29" height="100.25"/><path class="cls-4" d="M701.83,387.84V360.76c0-17.35-.06-42.39-.11-73.17l.2.2-179.28.06h0l.26-.26V387.84l-.24-.24,129,.12,37,.06h.11l-37,.07L522.66,388h-.25V287.21h.27l179.28.06h.2v.2c0,30.83-.08,55.91-.11,73.3V386A6.57,6.57,0,0,1,701.83,387.84Z" transform="translate(-28.75 -43.2)"/><rect class="cls-7" x="515.7" y="268.28" width="25.35" height="25.35"/><path class="cls-12" d="M604.61,315c0,.15-5.92.27-13.21.27s-13.22-.12-13.22-.27,5.92-.26,13.22-.26S604.61,314.9,604.61,315Z" transform="translate(-28.75 -43.2)"/><path class="cls-4" d="M689,324.16c0,.14-24.82.26-55.42.26s-55.42-.12-55.42-.26,24.81-.26,55.42-.26S689,324,689,324.16Z" transform="translate(-28.75 -43.2)"/><path class="cls-4" d="M651.73,334.38c0,.14-16.31.26-36.41.26s-36.42-.12-36.42-.26,16.3-.26,36.42-.26S651.73,334.24,651.73,334.38Z" transform="translate(-28.75 -43.2)"/><path class="cls-5" d="M552.82,351.06H675.29A11.75,11.75,0,0,1,687,362.81h0a11.75,11.75,0,0,1-11.75,11.75H552.82a11.75,11.75,0,0,1-11.75-11.75h0A11.75,11.75,0,0,1,552.82,351.06Z" transform="translate(-28.75 -43.2)"/><path class="cls-3" d="M591.54,364.45h-3l-.57,1.39h-1.54l2.89-6.47h1.48l2.89,6.47h-1.57Zm-.47-1.13-1-2.48-1,2.48Z" transform="translate(-28.75 -43.2)"/><path class="cls-3" d="M600,361.72c0,1.44-1.08,2.34-2.81,2.34h-1.3v1.78h-1.5v-6.47h2.8C598.89,359.37,600,360.26,600,361.72Zm-1.51,0c0-.71-.47-1.13-1.38-1.13h-1.22v2.25h1.22c.89,0,1.35-.42,1.35-1.12Z" transform="translate(-28.75 -43.2)"/><path class="cls-3" d="M606.65,361.72c0,1.44-1.08,2.34-2.81,2.34h-1.3v1.78H601v-6.47h2.8C605.57,359.37,606.65,360.26,606.65,361.72Zm-1.52,0c0-.71-.46-1.13-1.37-1.13h-1.22v2.25h1.22C604.67,362.84,605.13,362.42,605.13,361.72Z" transform="translate(-28.75 -43.2)"/><path class="cls-3" d="M607.72,359.37h1.49v5.25h3.25v1.22h-4.74Z" transform="translate(-28.75 -43.2)"/><path class="cls-3" d="M615.74,363.55v2.29h-1.5v-2.31l-2.5-4.16h1.59l1.73,2.87,1.73-2.87h1.47Z" transform="translate(-28.75 -43.2)"/><path class="cls-3" d="M627.44,359.37v6.47h-1.23L623,361.91v3.93h-1.48v-6.47h1.24L626,363.3v-3.93Z" transform="translate(-28.75 -43.2)"/><path class="cls-3" d="M628.57,362.6a3.55,3.55,0,1,1,3.74,3.34h-.19a3.35,3.35,0,0,1-3.54-3.14A1.48,1.48,0,0,1,628.57,362.6Zm5.57,0a2,2,0,1,0,0,.08Z" transform="translate(-28.75 -43.2)"/><path class="cls-3" d="M646.36,359.37l-2.12,6.47h-1.61l-1.42-4.38-1.47,4.38h-1.6L636,359.37h1.55l1.47,4.55,1.52-4.55h1.39l1.48,4.58,1.5-4.58Z" transform="translate(-28.75 -43.2)"/><rect class="cls-1" x="25.69" y="174.73" width="132.71" height="74.2"/><path class="cls-4" d="M187.15,292.14v-5.22c0-3.41,0-8.41-.05-14.84,0-12.85-.07-31.37-.11-54.15l.2.2-132.7.06h0l.26-.26v74.21l-.24-.24,95.42.11,27.43.07h.11l-27.37.06-95.59.12H54.2V217.55h.27l132.7.07h.2v.19c0,22.83-.08,41.4-.11,54.27,0,6.41,0,11.4,0,14.8v3.84C187.21,291.56,187.15,292.14,187.15,292.14Z" transform="translate(-28.75 -43.2)"/><rect class="cls-7" x="41.91" y="192.42" width="18.76" height="18.76"/><path class="cls-12" d="M115.19,238.26a93.86,93.86,0,0,1-9.78.26,93.86,93.86,0,0,1-9.78-.26,91.19,91.19,0,0,1,9.78-.26A91.19,91.19,0,0,1,115.19,238.26Z" transform="translate(-28.75 -43.2)"/><path class="cls-4" d="M177.66,245c0,.15-18.36.26-41,.26s-41-.11-41-.26,18.36-.26,41-.26S177.66,244.86,177.66,245Z" transform="translate(-28.75 -43.2)"/><path class="cls-4" d="M150.06,252.57c0,.14-12.06.26-26.95.26s-26.95-.12-26.95-.26,12.06-.26,27-.26S150.06,252.42,150.06,252.57Z" transform="translate(-28.75 -43.2)"/><path class="cls-5" d="M76.86,264.91H167.5a8.7,8.7,0,0,1,8.7,8.7h0a8.7,8.7,0,0,1-8.7,8.7H76.86a8.7,8.7,0,0,1-8.7-8.7h0A8.7,8.7,0,0,1,76.86,264.91Z" transform="translate(-28.75 -43.2)"/><path class="cls-3" d="M105.52,274.83h-2.23l-.43,1h-1.13l2.13-4.8H105l2.15,4.8H106Zm-.35-.84-.76-1.84-.76,1.84Z" transform="translate(-28.75 -43.2)"/><path class="cls-3" d="M111.76,272.8c0,1.07-.8,1.73-2.08,1.73h-1v1.33H107.6v-4.8h2.08C111,271.06,111.76,271.72,111.76,272.8Zm-1.12,0c0-.53-.35-.84-1-.84h-.91v1.67h.91C110.29,273.63,110.64,273.32,110.64,272.8Z" transform="translate(-28.75 -43.2)"/><path class="cls-3" d="M116.7,272.8c0,1.07-.8,1.73-2.08,1.73h-1v1.33h-1.11v-4.8h2.07C115.9,271.06,116.7,271.72,116.7,272.8Zm-1.12,0c0-.53-.34-.84-1-.84h-.9v1.67h.9C115.24,273.63,115.58,273.32,115.58,272.8Z" transform="translate(-28.75 -43.2)"/><path class="cls-3" d="M117.49,271.06h1.11V275H121v.91h-3.51Z" transform="translate(-28.75 -43.2)"/><path class="cls-3" d="M123.43,274.16v1.7h-1.11v-1.72l-1.85-3.08h1.17l1.29,2.13,1.28-2.13h1.09Z" transform="translate(-28.75 -43.2)"/><path class="cls-3" d="M132.09,271.06v4.8h-.91l-2.39-2.92v2.92H127.7v-4.8h.91L131,274v-2.91Z" transform="translate(-28.75 -43.2)"/><path class="cls-3" d="M132.93,273.46a2.62,2.62,0,1,1,2.76,2.48h-.14a2.48,2.48,0,0,1-2.62-2.34Zm4.12,0a1.5,1.5,0,1,0-1.5,1.53,1.47,1.47,0,0,0,1.5-1.44v-.09Z" transform="translate(-28.75 -43.2)"/><path class="cls-3" d="M146.1,271.06l-1.57,4.8h-1.19l-1.06-3.25-1.09,3.25H140l-1.58-4.8h1.15l1.08,3.37,1.13-3.37h1l1.1,3.4,1.12-3.4Z" transform="translate(-28.75 -43.2)"/><rect class="cls-1" x="495.77" y="45.1" width="145.6" height="81.41"/><path class="cls-4" d="M670.12,169.71V164c0-3.74,0-9.23,0-16.28,0-14.09-.06-34.42-.1-59.41l.2.2-145.59.06h0l.26-.26v81.41l-.24-.24,104.7.11,30.09.07h.07l-30,.07L524.52,170h-.24V88h.27l145.59.06h.2v.2c-.05,25-.08,45.41-.11,59.53,0,7,0,12.51-.05,16.24v4.22A13.46,13.46,0,0,1,670.12,169.71Z" transform="translate(-28.75 -43.2)"/><rect class="cls-7" x="513.56" y="64.5" width="20.58" height="20.58"/><path class="cls-12" d="M591.17,110.6c0,.14-4.81.26-10.73.26s-10.73-.12-10.73-.26a213.34,213.34,0,0,1,21.46,0Z" transform="translate(-28.75 -43.2)"/><path class="cls-4" d="M659.71,118c0,.15-20.15.27-45,.27s-45-.12-45-.27,20.14-.26,45-.26S659.71,117.85,659.71,118Z" transform="translate(-28.75 -43.2)"/><path class="cls-4" d="M629.43,126.3c0,.14-13.24.26-29.57.26s-29.57-.12-29.57-.26,13.24-.26,29.57-.26S629.43,126.15,629.43,126.3Z" transform="translate(-28.75 -43.2)"/><path class="cls-5" d="M648.56,158.92H549.11a9.54,9.54,0,0,1-9.54-9.54h0a9.54,9.54,0,0,1,9.54-9.54h99.45a9.54,9.54,0,0,1,9.54,9.54h0A9.54,9.54,0,0,1,648.56,158.92Z" transform="translate(-28.75 -43.2)"/><path class="cls-3" d="M580.55,150.72h-2.44l-.46,1.12H576.4l2.34-5.25h1.2l2.35,5.25H581Zm-.38-.93-.83-2-.84,2Z" transform="translate(-28.75 -43.2)"/><path class="cls-3" d="M587.4,148.5c0,1.17-.88,1.89-2.28,1.89h-1.06v1.45h-1.22v-5.25h2.28C586.52,146.59,587.4,147.32,587.4,148.5Zm-1.23,0c0-.58-.38-.92-1.12-.92h-1v1.82h1c.74,0,1.12-.33,1.12-.9Z" transform="translate(-28.75 -43.2)"/><path class="cls-3" d="M592.82,148.5c0,1.17-.87,1.89-2.28,1.89h-1.06v1.45h-1.21v-5.25h2.27C592,146.59,592.82,147.32,592.82,148.5Zm-1.23,0c0-.58-.37-.92-1.12-.92h-1v1.82h1C591.22,149.4,591.59,149.07,591.59,148.5Z" transform="translate(-28.75 -43.2)"/><path class="cls-3" d="M593.69,146.59h1.22v4.26h2.63v1h-3.85Z" transform="translate(-28.75 -43.2)"/><path class="cls-3" d="M600.21,150v1.86H599V150l-2-3.38h1.29l1.4,2.33,1.41-2.33h1.19Z" transform="translate(-28.75 -43.2)"/><path class="cls-3" d="M609.71,146.59v5.25h-1l-2.62-3.19v3.19h-1.2v-5.25h1l2.61,3.19v-3.19Z" transform="translate(-28.75 -43.2)"/><path class="cls-3" d="M610.63,149.22a2.88,2.88,0,1,1,3,2.7h-.17a2.72,2.72,0,0,1-2.87-2.55Zm4.52,0a1.65,1.65,0,1,0-1.65,1.68,1.61,1.61,0,0,0,1.65-1.57Z" transform="translate(-28.75 -43.2)"/><path class="cls-3" d="M625.07,146.59l-1.72,5.25H622l-1.15-3.56-1.2,3.56h-1.3l-1.72-5.25h1.26l1.18,3.69,1.24-3.69h1.13l1.2,3.72,1.22-3.72Z" transform="translate(-28.75 -43.2)"/></g></svg>