<svg xmlns="http://www.w3.org/2000/svg" viewBox="0 0 679.13 495.63"><defs><style>.cls-1{fill:#fafafa;}.cls-2{fill:#e0e0e0;}.cls-3{fill:#fff;}.cls-4{fill:#263238;}.cls-5{fill:#f4c542;}.cls-6{opacity:0.2;}.cls-7{fill:#041424;}.cls-8{fill:#f5f5f5;}.cls-9{fill:#455a64;}.cls-10{fill:#ffbe9d;}.cls-11{fill:#eb996e;}.cls-12{fill:#01497c;}.cls-13{opacity:0.3;}</style></defs><g id="Layer_2" data-name="Layer 2"><g id="Layer_1-2" data-name="Layer 1"><g id="freepik--background-complete--inject-95"><rect class="cls-1" x="0.29" y="115.71" width="156.2" height="102.18"/><path class="cls-2" d="M156.49,217.89v-7.17c0-4.68,0-11.58-.05-20.44,0-17.69-.06-43.2-.1-74.57l.2.24L.35,116h0l.26-.31V217.89l-.24-.28,112.33.14,32.27.07h.11l-32.22.08L.25,218.18H0V115.41H.28l156.19.07h.2v.23c0,31.44-.08,57-.11,74.72,0,8.82,0,15.7-.05,20.37v5.3C156.51,217.3,156.49,217.89,156.49,217.89Z"/><rect class="cls-2" x="19.37" y="140.07" width="22.08" height="25.83"/><path class="cls-2" d="M71.79,143.66a112.7,112.7,0,0,1-11.51.3,113,113,0,0,1-11.52-.3,112.82,112.82,0,0,1,11.52-.3C66.64,143.36,71.79,143.53,71.79,143.66Z"/><path class="cls-2" d="M145.32,153c0,.16-21.61.3-48.27.3s-48.29-.14-48.29-.3,21.62-.3,48.29-.3S145.32,152.82,145.32,153Z"/><path class="cls-2" d="M112.84,163.41c0,.16-14.21.3-31.73.3s-31.72-.14-31.72-.3,14.2-.31,31.72-.31S112.84,163.23,112.84,163.41Z"/><path class="cls-2" d="M133.36,204.35H26.66c-5.65,0-10.23-5.36-10.23-12h0c0-6.61,4.58-12,10.23-12h106.7c5.65,0,10.23,5.34,10.24,12h0c0,6.62-4.58,12-10.24,12Z"/><path class="cls-3" d="M60.4,194.06H57.78l-.5,1.41H55.94l2.52-6.59h1.29l2.5,6.59H60.9ZM60,192.89l-.9-2.53-.84,2.54Z"/><path class="cls-3" d="M67.75,191.26a2.24,2.24,0,0,1-2.45,2.34H64.16v1.83h-1.3v-6.6H65.3A2.31,2.31,0,0,1,67.75,191.26Zm-1.32,0a1.08,1.08,0,0,0-1.21-1.17H64.16v2.34h1.09A1.08,1.08,0,0,0,66.43,191.26Z"/><path class="cls-3" d="M73.56,191.26a2.2,2.2,0,0,1-2.44,2.34H70v1.83H68.67v-6.6h2.45A2.3,2.3,0,0,1,73.56,191.26Zm-1.32,0a1.07,1.07,0,0,0-1.2-1.17H70v2.34H71a1.08,1.08,0,0,0,1.21-1.17Z"/><path class="cls-3" d="M74.49,188.88H75.8v5.34h2.83v1.25H74.49Z"/><path class="cls-3" d="M81.49,193.13v2.34H80.18v-2.34L78,188.9h1.38l1.51,2.92,1.51-2.92h1.28Z"/><path class="cls-3" d="M91.68,188.88v6.59H90.61l-2.81-4v4H86.51v-6.59h1.08l2.8,4v-4Z"/><path class="cls-3" d="M92.66,192.18a3.49,3.49,0,0,1,2.9-3.85,3.33,3.33,0,0,1,3.29,3.4,3.48,3.48,0,0,1-2.91,3.84h-.19a3.14,3.14,0,0,1-3.09-3.21Zm4.85,0a1.92,1.92,0,0,0-1.8-2A2,2,0,0,0,94,192.27a1.91,1.91,0,0,0,1.76,2,1.85,1.85,0,0,0,1.76-1.94Z"/><path class="cls-3" d="M108.16,188.88l-1.85,6.59h-1.4L103.67,191l-1.28,4.46H101l-1.86-6.59h1.36l1.27,4.68,1.33-4.68h1.21l1.29,4.68,1.31-4.68Z"/><rect class="cls-1" x="24.78" y="333.3" width="135.01" height="88.31"/><path class="cls-2" d="M159.79,421.62v-6.21c0-4.06,0-10-.06-17.66,0-15.29-.06-37.35-.1-64.45l.2.23-135,.07h0l.26-.3v88.32l-.24-.29,97.08.14,27.9.08h0l-27.85.09-97.24.14h-.24V332.86h.27l135,.08h.2v.23c-.05,27.18-.08,49.27-.11,64.59V420A11.1,11.1,0,0,1,159.79,421.62Z"/><rect class="cls-2" x="41.28" y="354.36" width="19.09" height="22.33"/><path class="cls-2" d="M86.58,357.49a81.43,81.43,0,0,1-10,.3,82.63,82.63,0,0,1-10-.3,82.63,82.63,0,0,1,10-.3A83.46,83.46,0,0,1,86.58,357.49Z"/><path class="cls-2" d="M150.14,365.52c0,.16-18.68.3-41.73.3s-41.73-.14-41.73-.3,18.68-.31,41.73-.31S150.14,365.35,150.14,365.52Z"/><path class="cls-2" d="M122.06,374.52c0,.17-12.28.31-27.42.31s-27.39-.14-27.39-.31,12.28-.3,27.42-.3S122.06,374.35,122.06,374.52Z"/><path class="cls-2" d="M139.8,409.91H47.58c-4.89,0-8.85-4.63-8.85-10.35h0c0-5.71,4-10.34,8.84-10.34H139.8c4.88,0,8.84,4.62,8.85,10.33h0c0,5.72-4,10.35-8.85,10.35Z"/><path class="cls-3" d="M76.73,401H74.47L74,402.2H72.89l2.17-5.69h1.11l2.18,5.69H77.16Zm-.35-1-.77-2.18L74.83,400Z"/><path class="cls-3" d="M83.08,398.61A1.94,1.94,0,0,1,81,400.67H80v1.53H78.84v-5.69H81A2,2,0,0,1,83.08,398.61Zm-1.14,0a.9.9,0,0,0-1-1H80v2h.92A.9.9,0,0,0,81.94,398.61Z"/><path class="cls-3" d="M88.11,398.61A1.94,1.94,0,0,1,86,400.67H85v1.53H83.87v-5.69H86A2,2,0,0,1,88.11,398.61Zm-1.14,0a.9.9,0,0,0-1-1h-.91v2H86A.9.9,0,0,0,87,398.61Z"/><path class="cls-3" d="M88.92,396.54H90v4.62h2.45v1H88.92Z"/><path class="cls-3" d="M95,400.21v2H93.83v-2L92,396.51h1.19L94.45,399l1.3-2.52h1.1Z"/><path class="cls-3" d="M103.77,396.54v5.66h-.93l-2.42-3.51v3.51H99.3v-5.69h1l2.43,3.51v-3.51Z"/><path class="cls-3" d="M104.62,399.38a3,3,0,0,1,2.52-3.29A2.85,2.85,0,0,1,110,399a3,3,0,0,1-2.51,3.3h-.15a2.7,2.7,0,0,1-2.67-2.77Zm4.19,0a1.65,1.65,0,0,0-1.56-1.73,1.69,1.69,0,0,0-1.48,1.83,1.66,1.66,0,0,0,1.52,1.73,1.6,1.6,0,0,0,1.52-1.68Z"/><path class="cls-3" d="M118,396.54l-1.59,5.66h-1.17l-1.08-3.86-1.1,3.86h-1.21l-1.6-5.69h1.17l1.1,4,1.15-4h1l1.12,4,1.13-4Z"/><rect class="cls-1" x="495.14" y="373.14" width="135.01" height="88.31"/><path class="cls-2" d="M630.15,461.47v-6.21c0-4.06,0-10,0-17.67,0-15.29-.06-37.34-.11-64.45l.2.24-135,.07h0l.26-.31v88.33l-.24-.29,97.08.14,27.9.08h.11l-27.85.08-97.24.14H495V372.71h.27l135,.07h.2V373c-.05,27.17-.08,49.27-.11,64.58v22.2A6.38,6.38,0,0,1,630.15,461.47Z"/><rect class="cls-2" x="511.64" y="394.2" width="19.09" height="22.33"/><path class="cls-2" d="M556.94,397.34a165.15,165.15,0,0,1-19.9,0A161.13,161.13,0,0,1,556.94,397.34Z"/><path class="cls-2" d="M620.5,405.36c0,.17-18.68.31-41.73.31s-41.73-.14-41.73-.31,18.68-.3,41.73-.3S620.5,405.2,620.5,405.36Z"/><path class="cls-2" d="M592.42,414.37c0,.16-12.28.3-27.42.3s-27.42-.14-27.42-.3,12.28-.3,27.42-.3S592.42,414.19,592.42,414.37Z"/><path class="cls-2" d="M610.16,449.76H517.94c-4.89,0-8.85-4.64-8.85-10.35h0c0-5.72,4-10.35,8.84-10.35h92.23c4.88,0,8.84,4.62,8.85,10.33v0h0c0,5.71-4,10.35-8.85,10.35Z"/><path class="cls-3" d="M547.1,440.87h-2.27L544.4,442h-1.15l2.17-5.7h1.11l2.18,5.7h-1.18Zm-.36-1-.77-2.19-.77,2.19Z"/><path class="cls-3" d="M553.45,438.47a2,2,0,0,1-2.12,2.06h-1v1.57h-1.08v-5.7h2.11A1.92,1.92,0,0,1,553.45,438.47Zm-1.14,0a.9.9,0,0,0-1-1h-.92v2h.86C552,439.44,552.31,439.07,552.31,438.47Z"/><path class="cls-3" d="M558.48,438.47a2,2,0,0,1-2.12,2.06h-1v1.57h-1.11v-5.7h2.11A1.93,1.93,0,0,1,558.48,438.47Zm-1.15,0a.89.89,0,0,0-1-1h-.92v2h.92a.9.9,0,0,0,1-1Z"/><path class="cls-3" d="M559.25,436.39h1.13V441h2.44v1.07h-3.57Z"/><path class="cls-3" d="M565.32,440.06v2h-1.07v-2l-1.89-3.66h1.2l1.3,2.52,1.3-2.52h1.09Z"/><path class="cls-3" d="M574.13,436.39v5.69h-.88l-2.43-3.51v3.51H569.7v-5.69h.94l2.42,3.51v-3.51Z"/><path class="cls-3" d="M575,439.23a3,3,0,0,1,2.52-3.29,2.85,2.85,0,0,1,2.81,2.94,3,3,0,0,1-2.51,3.29h-.16a2.7,2.7,0,0,1-2.66-2.76Zm4.19,0a1.66,1.66,0,0,0-1.56-1.75,1.81,1.81,0,0,0,0,3.58,1.63,1.63,0,0,0,1.53-1.7Z"/><path class="cls-3" d="M588.37,436.39l-1.59,5.69h-1.21l-1.07-3.86-1.11,3.86h-1.2l-1.6-5.69h1.17l1.1,4,1.14-4h1l1.11,4,1.13-4Z"/><rect class="cls-1" x="522.58" y="157.5" width="156.2" height="102.18"/><path class="cls-2" d="M678.78,259.68v-27.6c0-17.69-.06-43.2-.11-74.58l.2.23-156.19.07h0l.26-.3V259.68l-.24-.28,112.33.14,32.28.08h.11l-32.22.08-112.49.14h-.24V157.07h.27l156.19.07h.2v.23c0,31.44-.08,57-.11,74.72v25.67A6.64,6.64,0,0,1,678.78,259.68Z"/><rect class="cls-2" x="541.67" y="181.86" width="22.08" height="25.83"/><path class="cls-2" d="M594.08,185.48c0,.18-5.15.31-11.51.31s-11.51-.13-11.51-.31,5.15-.3,11.51-.3A112.54,112.54,0,0,1,594.08,185.48Z"/><path class="cls-2" d="M667.62,194.77c0,.18-21.62.31-48.28.31s-48.28-.13-48.28-.31,21.61-.3,48.28-.3S667.62,194.61,667.62,194.77Z"/><path class="cls-2" d="M635.13,205.2c0,.16-14.2.3-31.72.3s-31.73-.14-31.73-.3,14.2-.31,31.73-.31S635.13,205,635.13,205.2Z"/><path class="cls-2" d="M549,222.19H655.66c5.65,0,10.23,5.36,10.23,12h0c0,6.61-4.58,12-10.23,12H549c-5.65,0-10.23-5.36-10.23-12h0C538.72,227.55,543.3,222.19,549,222.19Z"/><path class="cls-3" d="M582.69,235.85h-2.62l-.5,1.41h-1.32l2.51-6.6h1.29l2.52,6.6H583.2Zm-.41-1.17-.89-2.53-.9,2.53Z"/><path class="cls-3" d="M590,233.06a2.21,2.21,0,0,1-2.45,2.34h-1.13v1.85h-1.31v-6.6h2.44A2.26,2.26,0,0,1,590,233.06Zm-1.32,0a1.07,1.07,0,0,0-1.2-1.17h-1.06v2.34h1.06A1.1,1.1,0,0,0,588.72,233.06Z"/><path class="cls-3" d="M595.86,233.06a2.21,2.21,0,0,1-2.45,2.34h-1.16v1.85H591v-6.6h2.44A2.27,2.27,0,0,1,595.86,233.06Zm-1.32,0a1.08,1.08,0,0,0-1.2-1.17h-1.09v2.34h1.07A1.12,1.12,0,0,0,594.54,233.06Z"/><path class="cls-3" d="M596.79,230.66h1.3v5.42h2.83v1.17h-4.13Z"/><path class="cls-3" d="M603.78,234.91v2.34h-1.3v-2.34l-2.23-4.25h1.39l1.5,2.93,1.51-2.93h1.28Z"/><path class="cls-3" d="M614,230.66v6.59H612.9l-2.81-4v4H608.8v-6.6h1.08l2.81,4v-4Z"/><path class="cls-3" d="M615,234a3.45,3.45,0,0,1,2.92-3.8,3.3,3.3,0,0,1,3.25,3.41,3.45,3.45,0,0,1-2.91,3.8H618a3.13,3.13,0,0,1-3.08-3.2Zm4.85,0a1.92,1.92,0,0,0-1.8-2,2.1,2.1,0,0,0,0,4.14,1.87,1.87,0,0,0,1.77-2Z"/><path class="cls-3" d="M630.45,230.66l-1.84,6.59h-1.36L626,232.78l-1.32,4.47h-1.43l-1.85-6.6h1.35l1.27,4.68,1.33-4.68h1.21l1.29,4.68,1.31-4.68Z"/></g><g id="freepik--Window--inject-95"><rect class="cls-3" x="107.25" y="0.3" width="462.78" height="495.06"/><rect class="cls-2" x="107.25" y="0.3" width="462.78" height="32.93"/><path class="cls-4" d="M507.73,463.58c0,.17-77.44.3-173,.3s-173-.13-173-.3,77.43-.31,173-.31S507.73,463.41,507.73,463.58Z"/><rect class="cls-2" x="299.26" y="364.26" width="6.85" height="42.21"/><path class="cls-4" d="M306.12,406.46a6.17,6.17,0,0,1,0-.86v-2.44c0-2.15,0-5.17-.08-8.92,0-7.58-.07-18.08-.11-30l.26.3h-6.94c.51-.61.14-.17.26-.3h0v24.48c0,7.19-.06,13.29-.08,17.76l-.15-.17,5,.1h.08l-5.11.08h-.13v-.18c0-4.47-.05-10.53-.08-17.76V364.16h0l.27-.32h7.1v.31c0,12-.08,22.54-.11,30.18,0,3.72-.06,6.73-.07,8.87v2.34A7,7,0,0,1,306.12,406.46Z"/><path class="cls-4" d="M318.55,357.87h-32c-4.75,0-8.59-4.5-8.6-10.05h49.2C327.14,353.37,323.3,357.87,318.55,357.87Z"/><path class="cls-5" d="M346.8,349.78H291v-14H346.8c3.31,0,6,3.15,6,7h0C352.77,346.68,350.09,349.78,346.8,349.78Z"/><path class="cls-5" d="M247.56,235.46c-3.19.51-5.46,3.89-5.11,7.64l8.06,85.71c1.15,11.94,9.79,21,20.06,21h21.3c3.31,0,6-3.14,6-7h0c0-3.87-2.69-7-6-7H273.78c-5.14,0-9.49-4.45-10.17-10.41l-9.36-83.89c-.43-3.81-3.41-6.48-6.67-6h0Z"/><path class="cls-5" d="M315.42,336.49l-60.71,1-5.93-102.1,50.81-.37c5.09,0,9.2,4.88,9.18,10.84Z"/><g class="cls-6"><path class="cls-5" d="M248.07,235.46c-3.19.51-5.46,3.89-5.11,7.64L251,328.81c1.15,11.94,9.79,21,20.06,21h21.3c3.31,0,6-3.14,6-7h0c0-3.87-2.69-7-6-7H273c-5.14,0-8.75-4.26-9.43-10.22l-8.8-84.08c-.43-3.81-3.41-6.48-6.67-6h0Z"/></g><rect class="cls-4" x="296.05" y="357.87" width="13.27" height="8.07"/><path class="cls-2" d="M300,404.1h5.15c2.19,0,4,2.08,4,4.64v27.69c0,2.57-1.78,4.65-4,4.65H300c-2.19,0-4-2.08-4-4.65V408.74C296.05,406.18,297.83,404.1,300,404.1Z"/><path class="cls-4" d="M305.18,441.08a3,3,0,0,0,.82-.17,4.33,4.33,0,0,0,2.83-3.08,8.38,8.38,0,0,0,.17-2.34v-5.85c0-4.4,0-9.6-.06-15.36v-4.44a8.55,8.55,0,0,0-.14-2.2,4.42,4.42,0,0,0-.92-1.88,3.67,3.67,0,0,0-1.61-1.17,5.89,5.89,0,0,0-2-.18h-4.22a3.67,3.67,0,0,0-3.24,2.24,5.12,5.12,0,0,0-.47,2.16v11.41c0,5.77,0,11,0,15.35a6.33,6.33,0,0,0,.43,2.93,3.76,3.76,0,0,0,3.52,2.34H302l2.41.06a4,4,0,0,1,.84.06,3.93,3.93,0,0,1-.84,0L302,441h-1.74a4,4,0,0,1-3.81-2.49A5.82,5.82,0,0,1,296,437a11.19,11.19,0,0,1-.07-1.64c0-4.38,0-9.58-.06-15.34V408.65c0-2.73,1.83-5,4.16-5h4.23a6.15,6.15,0,0,1,2.13.2,4.38,4.38,0,0,1,1.83,1.3,5.24,5.24,0,0,1,1,2.13,10.16,10.16,0,0,1,.15,2.34V414c0,5.77,0,11-.05,15.36v5.85a8.71,8.71,0,0,1-.22,2.44,5.17,5.17,0,0,1-.93,1.77,3.81,3.81,0,0,1-2.12,1.35A2.61,2.61,0,0,1,305.18,441.08Z"/><path class="cls-2" d="M340.8,438.79H262.9a6.9,6.9,0,0,0-5.61,2.64c-2.89,3.51-2.71,9.36-2.7,9.57l3.55-.18c0-1.17.19-4.68,1.72-6.52a3.68,3.68,0,0,1,3-1.36H283.3v10.59h3.55V442.94h53.91c2.28,0,4.13,2.17,4.14,4.84v3.13h3.55v-3.08C348.47,442.86,345,438.82,340.8,438.79Z"/><path class="cls-4" d="M340.8,438.79a5.57,5.57,0,0,1,1,0,6.85,6.85,0,0,1,2.72,1,8.79,8.79,0,0,1,3.24,3.83,10.2,10.2,0,0,1,.84,3.34c.07,1.25,0,2.54,0,3.93V451h-3.81v-.16c-.1-2,.4-4.51-1-6.24a3.84,3.84,0,0,0-2.63-1.51H286.93l.24-.29V453.7h-4.06V442.81l.26.3H262.56a3.52,3.52,0,0,0-2,.74,4.75,4.75,0,0,0-1.32,1.91,13.12,13.12,0,0,0-.85,4.91V451h-.24l-3.55.17h-.26v-.3a19.66,19.66,0,0,1,.77-5.78,10.81,10.81,0,0,1,2.73-4.79,7.16,7.16,0,0,1,4.54-1.93h22.35l29.47.07,19.54.08,5.25.06h-5.25l-19.54.1-29.47.07H262.41a6.53,6.53,0,0,0-4.25,1.82,10,10,0,0,0-2.58,4.52,18.52,18.52,0,0,0-.72,5.55l-.27-.28,3.54-.17-.24.3a13.63,13.63,0,0,1,.9-5.2,5.23,5.23,0,0,1,1.49-2.14,3.92,3.92,0,0,1,2.26-.85h21.07v10.89l-.25-.29h3.54l-.25.29V442.3h54.51c2.19.22,3.89,2.34,3.94,4.91v3.23l-.14-.17h3.55l-.13.14c0-1.38.05-2.7,0-3.9a9.74,9.74,0,0,0-.79-3.26,8.7,8.7,0,0,0-3.12-3.8,7,7,0,0,0-2.67-1C341.13,438.81,340.8,438.81,340.8,438.79Z"/><path class="cls-4" d="M292,458.46c0,4.49-3.1,8.14-6.94,8.15s-6.95-3.63-7-8.12,3.1-8.14,6.94-8.15h0C288.83,450.34,291.94,454,292,458.46Z"/><path class="cls-4" d="M263.31,456.49c0,4.49-3.11,8.13-6.95,8.13s-7-3.64-7-8.13,3.11-8.13,7-8.13,6.95,3.64,6.95,8.13Z"/><path class="cls-4" d="M352.86,456.78c0,4.49-3.1,8.13-6.94,8.14s-6.95-3.63-7-8.12,3.1-8.13,6.94-8.14h0C349.74,448.66,352.85,452.29,352.86,456.78Z"/><path class="cls-4" d="M348.3,335.81c0,.17-17.12.38-38.23.47s-38.23,0-38.23-.14,17.11-.37,38.23-.47S348.3,335.64,348.3,335.81Z"/><path class="cls-4" d="M263.13,324.2c-.14,0-2.25-18.49-4.7-41.34s-4.33-41.4-4.19-41.42,2.25,18.48,4.7,41.34S263.25,324.17,263.13,324.2Z"/><path class="cls-4" d="M253.6,235.26a2.09,2.09,0,0,1,.54-.16,9.34,9.34,0,0,1,1.58-.19,13.55,13.55,0,0,1,5.77,1,8.37,8.37,0,0,1,3.36,2.67,24.22,24.22,0,0,1,2.57,4.53c1.5,3.38,3.17,7,5,10.87,3.67,7.61,7.12,14.44,9.46,19.5,1.19,2.51,2.1,4.57,2.72,6,.28.67.5,1.17.69,1.66a2.57,2.57,0,0,1,.2.61,4.83,4.83,0,0,1-.3-.55l-.77-1.61-2.86-5.91c-2.42-5-5.92-11.78-9.6-19.42-1.84-3.82-3.5-7.52-5-10.89a22.47,22.47,0,0,0-2.48-4.46,7.85,7.85,0,0,0-3.17-2.61,14.13,14.13,0,0,0-5.63-1.17C254.36,235.13,253.61,235.32,253.6,235.26Z"/><path class="cls-4" d="M242.86,239.71c.13.08-4.47,9.46-10.26,20.94S222,281.38,221.88,281.3s4.47-9.47,10.27-21S242.74,239.59,242.86,239.71Z"/><rect class="cls-1" x="213.87" y="281.29" width="83.23" height="28.71"/><path class="cls-4" d="M236.32,290.2l-4.07,11H230.1l-4.06-11h2.35l2.86,7.88,2.9-7.87Z"/><path class="cls-4" d="M243,298.86h-4.37l-.83,2.34h-2.23l4.19-11h2.15l4.21,11h-2.29Zm-.73-1.95-1.49-4.22-1.45,4.22Z"/><path class="cls-4" d="M246.35,295.74c.16-3.34,2.61-5.89,5.46-5.71a4.92,4.92,0,0,1,3.54,2l-1.4,1.51a2.86,2.86,0,0,0-2.36-1.29,3.55,3.55,0,0,0,0,7,2.84,2.84,0,0,0,2.36-1.3l1.4,1.51a4.66,4.66,0,0,1-7.3.44,6.46,6.46,0,0,1-1.7-4.17Z"/><path class="cls-4" d="M262.8,298.86h-4.37l-.83,2.34h-2.23l4.19-11h2.15l4.21,11h-2.29Zm-.68-1.93-1.5-4.23-1.49,4.21Z"/><path class="cls-4" d="M275.53,290.2v11h-1.79l-4.69-6.65v6.7H266.9v-11h1.8l4.68,6.69v-6.69Z"/><path class="cls-4" d="M279.7,292.24h-3v-2.09h8.2v2.09h-3v8.93h-2.18Z"/><path class="cls-4" d="M294.41,307.44v-6.19c0-4,0-9.86-.08-17.23l.15.18-78.5.13c.11-.14-.27.3.25-.31h0v23.4l-.26-.29,56,.13,16.51.08h6a2.29,2.29,0,0,1-.37,0H288.6l-16.45.08-56.16.14h-.25V284h0c.52-.61.15-.17.27-.3l78.5.12h.16V284c0,7.42-.07,13.29-.09,17.34V307A1.94,1.94,0,0,1,294.41,307.44Z"/><path class="cls-7" d="M302.55,138.84h6.33l-6.27,6h-4.53Z"/><path class="cls-5" d="M231.48,195.32v15.41h-8.06V196.87c0-3.89-1.45-5.53-3.78-5.53-2.59,0-4.59,1.9-4.59,6.37v13H207V173.87h8.07v12.41a9.22,9.22,0,0,1,6.92-2.93C227.36,183.35,231.48,187,231.48,195.32Z"/><path class="cls-5" d="M235.65,175.8a4.81,4.81,0,0,1,4.92-5,4.69,4.69,0,0,1,4.93,4.87,4.91,4.91,0,0,1-4.93,5.17A4.78,4.78,0,0,1,235.65,175.8Zm.89,8h8.07v26.91h-8.07Z"/><path class="cls-5" d="M265.25,183.35v8.5a11.29,11.29,0,0,0-1.83-.15c-3.27,0-5.52,1.94-5.52,6.65v12.38h-8.07V183.82h7.69v3.23C259.18,184.61,261.85,183.35,265.25,183.35Z"/><path class="cls-5" d="M267.67,175.8a4.79,4.79,0,0,1,4.93-5,4.65,4.65,0,0,1,4.92,4.87,4.91,4.91,0,0,1-4.92,5.17A4.79,4.79,0,0,1,267.67,175.8Zm.89,8h8.07v26.91h-8.07Z"/><path class="cls-5" d="M306.36,195.32v15.41h-8.11V196.87c0-3.89-1.44-5.53-3.78-5.53-2.59,0-4.59,1.9-4.59,6.37v13h-8.06V183.82h7.68v2.93a9.16,9.16,0,0,1,7.31-3.37C302.25,183.35,306.36,187,306.36,195.32Z"/><path class="cls-5" d="M336.51,183.8v22c0,10.19-4.92,15-13.5,15-4.42,0-8.62-1.17-11.43-3.51l2.93-6.61a12.07,12.07,0,0,0,7.78,2.89c4.33,0,6.15-2.34,6.15-6.51v-.89a8,8,0,0,1-6.83,3.18c-6.12,0-11.3-5.08-11.3-13s5.18-13,11.3-13a7.89,7.89,0,0,1,7.22,3.72v-3.28Zm-8,12.52c0-3.28-2.13-5.47-5-5.47s-5.06,2.19-5.06,5.47,2.17,5.51,5.06,5.51c2.58.22,4.82-2.05,5-5.07,0-.15,0-.3,0-.45Z"/><path class="cls-5" d="M340.25,205.56c0-3.13,2.17-5.66,4.85-5.66s4.83,2.54,4.83,5.66-2.17,5.66-4.85,5.65S340.25,208.68,340.25,205.56Z"/><path class="cls-7" d="M317,147v6.68a8.54,8.54,0,0,0-1.43-.12c-2.57,0-4.33,1.52-4.33,5.22v9.71h-6.34V147.3h6v2.54A7,7,0,0,1,317,147Z"/><path class="cls-7" d="M337.76,159.75H324.62a4.25,4.25,0,0,0,4.44,3.39,5.33,5.33,0,0,0,4.16-1.84l3.34,4.06c-1.74,2.26-4.27,3.44-7.7,3.44-6.44,0-10.61-4.68-10.61-11S322.49,147,328.19,147c5.33,0,9.67,4,9.67,11C337.86,158.46,337.79,159.16,337.76,159.75Zm-13.24-3.9h7.4c-.37-2.39-2.33-4-4.37-3.54A4.12,4.12,0,0,0,324.52,155.85Z"/><path class="cls-7" d="M277.55,147.3l-6.44,21.14H265l-3.4-11.5L258,168.44h-6.13l-6.44-21.14h6l3.7,12.8L259,147.3h5.4l3.73,12.87L272,147.3Z"/><path class="cls-7" d="M297.35,159.75h-13.1a4.25,4.25,0,0,0,4.44,3.39,5.35,5.35,0,0,0,4.17-1.84l3.33,4.06c-1.73,2.26-4.27,3.44-7.7,3.44-6.44,0-10.6-4.68-10.6-11S282.12,147,287.82,147c5.34,0,9.67,4,9.67,11C297.45,158.46,297.38,159.16,297.35,159.75Zm-13.24-3.9h7.41c-.35-2.39-2.3-4-4.35-3.58A4.12,4.12,0,0,0,284.11,155.85Z"/><path class="cls-2" d="M250.16,108.17l-1-24.86A3.79,3.79,0,0,0,246,79.48h0A3.62,3.62,0,0,0,242.3,83l-2.69,24.92A3.08,3.08,0,0,0,242,111.4l.3,0h5.18a3,3,0,0,0,2.69-3.19Z"/><path class="cls-2" d="M240.53,65.41c.94-3.16,3.9-4.83,6.6-3.72s4.12,4.56,3.18,7.72-3.9,4.82-6.6,3.72-4.12-4.56-3.18-7.72Z"/><path class="cls-8" d="M194.54,139.58l-12.38-12.3a2.36,2.36,0,0,0-3.48.1h0a3.44,3.44,0,0,0-.23,4.22l10.48,14.72a1.88,1.88,0,0,0,2.92.29,1.54,1.54,0,0,0,.17-.19l2.69-3.38a2.69,2.69,0,0,0-.1-3.39Z"/><path class="cls-8" d="M169.14,123.63a5.1,5.1,0,0,1,1.62-6.34,3.72,3.72,0,0,1,5.42,1.89,5.11,5.11,0,0,1-1.62,6.34l-.08,0A3.72,3.72,0,0,1,169.14,123.63Z"/><path class="cls-2" d="M184,81.76l19,37.72c1.55,3.09,4.83,4.33,7.64,2.9h0c3-1.51,4.4-5.47,3.26-9L200.63,72c-.93-2.88-3.68-4.33-6.14-3.24a3.74,3.74,0,0,0-.52.28l-8.07,5a6.07,6.07,0,0,0-2,7.53C184,81.61,184,81.69,184,81.76Z"/><path class="cls-2" d="M229.06,139.05c.75,5.83-2.68,11.26-7.66,12.14s-9.63-3.13-10.38-9,2.68-11.26,7.66-12.14h0C223.67,129.22,228.31,133.23,229.06,139.05Z"/><path class="cls-4" d="M570,495.36c0-2.2-.09-197.35-.22-495.06l.22.26L107.25.61h0l.26-.31V495.36l-.22-.27,462.77.27-462.81.27H107V0H570.25V.26C570.11,298,570,493.16,570,495.36Z"/><ellipse class="cls-3" cx="120.11" cy="16.54" rx="3.83" ry="4.48"/><ellipse class="cls-3" cx="133.27" cy="16.54" rx="3.83" ry="4.48"/><ellipse class="cls-3" cx="146.43" cy="16.54" rx="3.83" ry="4.48"/></g><g id="freepik--Character--inject-95"><path class="cls-9" d="M392.81,109.73a38.87,38.87,0,0,1-9.34-4.15,39.43,39.43,0,0,1,9.34,4.15Z"/><path class="cls-10" d="M380,133.3c-1-.13-3.7,1.43-5.95,4.56L374,138c-1.59,2.09-2.58-4.34-2.68-6.72A2.23,2.23,0,0,0,369,129a1.8,1.8,0,0,0-.46.1l-7,3.14-2-.08a2.37,2.37,0,0,0-1.45,2.69l2.48,12.74-.13,3.41,13.4,3.25.72-8.51c.26-1,.6-2.12,1-3.42a11.25,11.25,0,0,1,1.69-3.2,18.83,18.83,0,0,1,2.62-2.93l.23-.15a1.29,1.29,0,0,0,.41-.36,1.54,1.54,0,0,0,.17-1.94A1.08,1.08,0,0,0,380,133.3Z"/><path class="cls-5" d="M377.08,97.38s-8-1.17-20-12.35-18.53-27.1-19.87-26.91-7.5-2.34-16.41,27.44-4,35.9-1.74,35.6,17-6.91,26.54-6.69,22.18,4.68,22.18,4.68Z"/><path class="cls-4" d="M395,111.09l-2.2,6.24-1,2.79c-1.35,3.84-5,5.77-8.37,4.39l-17.35-5,7.68-27.2,17.62,8.62C394.75,102.57,396.37,107.11,395,111.09Z"/><path class="cls-4" d="M388.14,120.26l-5.81,12-2.65-1-18.13,15.85L357,135.71s10.55-4.68,12.63-9-.11-5.32-.11-5.32l5.1-6.25Z"/><path class="cls-4" d="M321.72,86c-4.72,16.11-6.1,30.15-3.07,31.37s9.3-10.87,14-27,6.1-30.15,3.07-31.37S326.44,70,321.72,86Z"/><polygon class="cls-9" points="397.11 119.53 392.42 118.36 394.74 111.77 398.35 113.88 397.11 119.53"/><path class="cls-9" d="M391.72,113.56c-.06.19-2.41-.6-5.26-1.74a23.72,23.72,0,0,1-5.07-2.4,23.87,23.87,0,0,1,5.26,1.74A24.21,24.21,0,0,1,391.72,113.56Z"/><path class="cls-9" d="M390.25,117.68c0,.09-.56,0-1.45-.21l-1.56-.42c-.58-.18-1.19-.46-1.84-.72a17.75,17.75,0,0,1-4.56-2.34c.06-.18,2.18.65,4.76,1.71.64.27,1.24.56,1.81.77s1.07.38,1.49.55C389.76,117.33,390.25,117.58,390.25,117.68Z"/><path class="cls-1" d="M333.6,81.24s-7.21-4.19-10.07,7S328,100.38,328,100.38A80.12,80.12,0,0,0,333.6,81.24Z"/><path class="cls-4" d="M339.81,67.62a14.56,14.56,0,0,1-.1,2.09c-.11,1.34-.26,3.28-.51,5.68-.19,1.17-.41,2.48-.63,3.87-.12.69-.24,1.41-.36,2.15-.07.38-.13.75-.19,1.17s-.18.76-.27,1.17l-1.16,4.81c-.1.42-.21.84-.31,1.26s-.26.83-.38,1.27l-.82,2.55c-.27.85-.55,1.7-.82,2.55-.14.42-.25.84-.41,1.24l-.48,1.17-1.83,4.52c-.14.36-.28.72-.44,1.06s-.32.68-.49,1l-.94,1.91c-.61,1.17-1.17,2.34-1.69,3.4-1.16,2-2.13,3.57-2.8,4.68a11.78,11.78,0,0,1-1.09,1.65,11.63,11.63,0,0,1,.9-1.8l2.64-4.78,1.62-3.43.91-1.91.47-1c.16-.34.29-.7.43-1.07.57-1.44,1.17-2.94,1.78-4.5l.47-1.17c.16-.4.27-.83.41-1.24.27-.83.54-1.68.81-2.54l.82-2.53c.12-.42.28-.83.38-1.25s.21-.84.31-1.25l1.19-4.77c.09-.38.2-.75.27-1.17s.14-.75.2-1.17c.14-.73.26-1.44.39-2.13.25-1.38.49-2.66.7-3.84.29-2.34.53-4.26.69-5.63A17.52,17.52,0,0,1,339.81,67.62Z"/><path class="cls-10" d="M366.32,126.56a1.9,1.9,0,0,0-.94,2.2c.41,1.76,1.09,4.52,1.62,6.22a5,5,0,0,0,.69,1.52A1.21,1.21,0,0,0,369,137a1.68,1.68,0,0,0,.87-1.39,5.62,5.62,0,0,0-.18-1.83c-.34-1.64-1-4.11-1.5-6.12a1.43,1.43,0,0,0-1.76-1.2l-.09,0Z"/><path class="cls-10" d="M364.08,129.62a1.9,1.9,0,0,0-.95,2.2c.42,1.77,1.1,4.53,1.63,6.21a4.86,4.86,0,0,0,.68,1.54,1.2,1.2,0,0,0,1.29.52,1.63,1.63,0,0,0,.87-1.39,5.3,5.3,0,0,0-.17-1.82c-.35-1.64-1-4.12-1.5-6.13a1.44,1.44,0,0,0-1.76-1.21l-.09,0Z"/><path class="cls-10" d="M362,131.41a1.61,1.61,0,0,0-.85,1.91c.38,1.52,1,3.93,1.48,5.39a4.52,4.52,0,0,0,.62,1.31,1.11,1.11,0,0,0,1.17.47,1.43,1.43,0,0,0,.79-1.17,4.94,4.94,0,0,0-.16-1.58c-.32-1.43-.89-3.51-1.38-5.31a1.29,1.29,0,0,0-1.67-1Z"/><path class="cls-10" d="M359.33,131.88a1.61,1.61,0,0,0-.86,1.91c.39,1.53,1,4,1.5,5.41a4.11,4.11,0,0,0,.62,1.34,1,1,0,0,0,1.53.31,1.35,1.35,0,0,0,.47-1.06,4.65,4.65,0,0,0-.17-1.58c-.32-1.44-.89-3.59-1.38-5.35a1.29,1.29,0,0,0-1.66-1h-.05Z"/><path class="cls-11" d="M367.54,136.56a10.8,10.8,0,0,1-1.19-3.14,10.39,10.39,0,0,1-.67-3.33,10.16,10.16,0,0,1,1.19,3.14A10.39,10.39,0,0,1,367.54,136.56Z"/><path class="cls-11" d="M365.14,139a13,13,0,0,1-1.26-3.6,13.85,13.85,0,0,1-.74-3.79,13,13,0,0,1,1.26,3.6A13.14,13.14,0,0,1,365.14,139Z"/><path class="cls-11" d="M362.78,139.17a8.7,8.7,0,0,1-1.3-3.13,8.85,8.85,0,0,1-.57-3.4,13.35,13.35,0,0,1,1.09,3.21A12.76,12.76,0,0,1,362.78,139.17Z"/><path class="cls-4" d="M446.16,96.62a30.17,30.17,0,0,0-17.91-14.75c-3-1-5.1-.7-8.23-.29a12.5,12.5,0,0,0-8.26,4.48,26.94,26.94,0,0,0-5.86,11,83.23,83.23,0,0,0-2.28,13.19,28.24,28.24,0,0,0,1.92,13.13l9.38,3.67c5.3,1.17,10.67,2.34,16,1.84a19.59,19.59,0,0,0,14.3-7.69C450.08,114.53,450,104.15,446.16,96.62Z"/><path class="cls-4" d="M451.25,129.62a9.26,9.26,0,0,0-2.43-6.92,4.65,4.65,0,0,0-6.17-.47l-1.79,1.84a7.23,7.23,0,0,0-4.53,6.7,8.29,8.29,0,0,0,3.88,7.37,6.7,6.7,0,0,0,7.45-.75A10.56,10.56,0,0,0,451.25,129.62Z"/><path class="cls-9" d="M448.33,136.92a4.12,4.12,0,0,0,.81-2.15,11.45,11.45,0,0,0-1.54-5.46,14.93,14.93,0,0,0-3.39-4.31c-1-.91-1.78-1.31-1.74-1.4a5.26,5.26,0,0,1,1.93,1.07A13.12,13.12,0,0,1,448,129a15.3,15.3,0,0,1,1.19,3.06,7.08,7.08,0,0,1,.28,2.75,3.36,3.36,0,0,1-.67,1.7C448.55,136.85,448.35,137,448.33,136.92Z"/><path class="cls-9" d="M443.25,139.43a29.76,29.76,0,0,0,.54-7.54,27.61,27.61,0,0,0-1.87-7.22,5.89,5.89,0,0,1,1.06,1.9,18.47,18.47,0,0,1,1,10.74A7,7,0,0,1,443.25,139.43Z"/><path class="cls-10" d="M411.74,150.6c.58-3.94,1.87-12.4,1.87-12.38s-7.73-2.42-8.36-14.59c-.32-6,.75-15.79,1.84-23.73,1-7.15,7.46-16,15-14.65l3.41.14,12.07,8.27a4.21,4.21,0,0,1,2.87,4.68l-6.61,51.11-18.71,42.83-4.23-30.42Z"/><path class="cls-4" d="M410.57,108.62a1.51,1.51,0,0,0,1.14,1.69,1.29,1.29,0,0,0,1.46-1.19v0a1.53,1.53,0,0,0-1.14-1.7,1.29,1.29,0,0,0-1.46,1.19Z"/><path class="cls-4" d="M409,104.75c.15.22,1.22-.53,2.63-.36s2.38,1.11,2.55.92-.05-.47-.47-.9a3.34,3.34,0,0,0-2-1,3.05,3.05,0,0,0-2.11.54C409.12,104.31,408.94,104.66,409,104.75Z"/><path class="cls-4" d="M416.25,118.75A8,8,0,0,0,414,118c-.36-.09-.69-.2-.73-.51a2.36,2.36,0,0,1,.35-1.17c.42-1,.86-2,1.33-3.1,1.86-4.41,3.25-8.06,3.09-8.19a59.49,59.49,0,0,0-3.64,7.84L413.1,116a2.81,2.81,0,0,0-.33,1.64,1,1,0,0,0,.55.69,2.56,2.56,0,0,0,.6.17A8,8,0,0,0,416.25,118.75Z"/><path class="cls-11" d="M413.61,138.22a23,23,0,0,0,14.08-2.75s-4.34,7.89-14.51,5.61Z"/><path class="cls-4" d="M410.12,98.91c.22.41,1.23.13,2.4.25s2.14.49,2.4.13c.12-.18,0-.58-.41-1a3.1,3.1,0,0,0-3.87-.29C410.25,98.35,410,98.73,410.12,98.91Z"/><path class="cls-4" d="M426.74,109.83a1.38,1.38,0,0,1-1.44,1.34,1.42,1.42,0,0,1-1.19-1.57v0a1.37,1.37,0,0,1,1.44-1.34,1.42,1.42,0,0,1,1.19,1.57Z"/><path class="cls-4" d="M427.73,106.13c-.19.18-1.08-.84-2.49-1.06s-2.53.44-2.66.22.14-.43.63-.75a3.15,3.15,0,0,1,2.17-.42,3.29,3.29,0,0,1,1.95,1.09C427.71,105.66,427.82,106.05,427.73,106.13Z"/><path class="cls-4" d="M427.52,100.49c-.29.33-1.22-.21-2.38-.41s-2.19-.09-2.37-.51c-.08-.21.12-.56.59-.84a2.81,2.81,0,0,1,2-.31,3.19,3.19,0,0,1,1.82,1C427.55,99.92,427.65,100.38,427.52,100.49Z"/><path class="cls-4" d="M438.25,115.09l-2,1.82c-6.49-9.87-18.56-33.81-17.9-32.4a19.28,19.28,0,0,1,11,.55c5.5,2.14,15.79,7.36,14.61,15.13A44.38,44.38,0,0,1,438.25,115.09Z"/><path class="cls-9" d="M442.49,122.73c0-.63.09-1.27.18-1.89a34.2,34.2,0,0,0,.08-5.16,39.15,39.15,0,0,0-4.62-16,54.18,54.18,0,0,0-9.71-12.65c-1.44-1.4-2.63-2.49-3.47-3.24a14,14,0,0,1-1.27-1.17s.14,0,.37.24.58.43,1,.78c.87.69,2.1,1.73,3.57,3.11a50.23,50.23,0,0,1,9.91,12.66,38.12,38.12,0,0,1,4.55,16.24,29.4,29.4,0,0,1-.23,5.22c-.07.6-.19,1.06-.24,1.39A1.69,1.69,0,0,1,442.49,122.73Z"/><path class="cls-9" d="M428.11,82.92a2.14,2.14,0,0,1,.38.23c.25.17.6.41,1.05.75.89.68,2.17,1.7,3.68,3.08a62,62,0,0,1,5,5.21,38.94,38.94,0,0,1,5.31,7.35,19.4,19.4,0,0,1,2.33,9.27,31.67,31.67,0,0,1-1,7.78c-.55,2.15-1.11,3.84-1.51,5-.2.57-.37,1-.48,1.32a3.49,3.49,0,0,1-.2.44,14,14,0,0,1,.55-1.92c.34-1.17.85-2.87,1.35-5a32.24,32.24,0,0,0,.92-7.66,19.07,19.07,0,0,0-2.3-8.94,41.18,41.18,0,0,0-5.2-7.28,70.65,70.65,0,0,0-5-5.22c-1.47-1.41-2.72-2.47-3.58-3.2A11.44,11.44,0,0,1,428.11,82.92Z"/><path class="cls-9" d="M438.4,115.31a7.17,7.17,0,0,1-.77-1.17l-2-3.34C434,108,431.77,104,429.34,99.65s-4.62-8.34-6.18-11.24L421.33,85a9.7,9.7,0,0,1-.62-1.3,7.17,7.17,0,0,1,.77,1.17l2,3.35c1.63,2.83,3.86,6.77,6.3,11.14s4.62,8.36,6.18,11.25l1.83,3.45A7.93,7.93,0,0,1,438.4,115.31Z"/><path class="cls-10" d="M436.34,118.25c.08-.89,1.14-2.9,1.9-3,2-.14,5.66.46,5.19,6.45-.63,8.19-7.51,5.74-7.51,5.51S436.08,121.33,436.34,118.25Z"/><path class="cls-11" d="M437.85,124.18a1.74,1.74,0,0,0,.31.25,1.05,1.05,0,0,0,.91.12,3.61,3.61,0,0,0,1.64-3,5.61,5.61,0,0,0-.19-2.08,1.55,1.55,0,0,0-.83-1.17.6.6,0,0,0-.75.31,2.24,2.24,0,0,0-.11.4s-.14-.15-.06-.48a.84.84,0,0,1,.31-.48.81.81,0,0,1,.69-.14,1.87,1.87,0,0,1,1.18,1.4,5.45,5.45,0,0,1,.24,2.34c-.17,1.65-1,3.12-2,3.35a1.18,1.18,0,0,1-1.1-.33C437.85,124.38,437.83,124.19,437.85,124.18Z"/><path class="cls-10" d="M452.76,421c-.14,1.28-2.85,37.26-2.85,37.26H435.82l-2.47-37.11Z"/><path class="cls-5" d="M435.78,452.92s9.9,8.19,14.68,1.11l1.26,3.44L457.34,482a3.48,3.48,0,0,1-1.58,3.94,2.42,2.42,0,0,1-2.88-.65c-4.07-4.53-19-21.28-18.82-23.54l.05-6a3.14,3.14,0,0,1,1.67-2.83Z"/><path class="cls-7" d="M455.25,486.13l-21.2-26.45V461a4.07,4.07,0,0,0,1,2.91c1.72,2.71,6.47,8.77,17.74,21.42a2.45,2.45,0,0,0,2.47.81Z"/><path class="cls-7" d="M437.16,455.75a2.13,2.13,0,0,1,.46,2.51,1.46,1.46,0,0,1-2.13.57,2.26,2.26,0,0,1-.47-2.67,1.48,1.48,0,0,1,2.26-.29"/><path class="cls-7" d="M449.16,472.58a8.83,8.83,0,0,1,2.32-2.43,7.52,7.52,0,0,1,3-.7c0-.07-.31-.32-.93-.41a3.65,3.65,0,0,0-2.38.5,4.54,4.54,0,0,0-1.78,1.92C449.13,472.09,449.09,472.56,449.16,472.58Z"/><path class="cls-7" d="M451.06,476.74a19.09,19.09,0,0,1,2.35-1.36A20.79,20.79,0,0,1,456,475c.08-.16-1.2-.81-2.76-.24S450.92,476.65,451.06,476.74Z"/><path class="cls-7" d="M445.62,467.26a27.36,27.36,0,0,1,3.5-2.34,22.82,22.82,0,0,1,3.94-1.09c0-.17-1.94-.59-4.16.46A6.26,6.26,0,0,0,445.62,467.26Z"/><path class="cls-7" d="M445.14,459.78c.08.19,1.54-.53,3.45-.62s3.42.44,3.48.25a5.93,5.93,0,0,0-6.93.37Z"/><path class="cls-7" d="M449.68,459.09a3.34,3.34,0,0,0-.15-1.17,8.82,8.82,0,0,0-1.28-2.84,3.17,3.17,0,0,0-1.58-1.41,1,1,0,0,0-1.17.53,2.5,2.5,0,0,0-.19,1.48,4,4,0,0,0,4,3.37,4.69,4.69,0,0,0,3.88-3.63,2.1,2.1,0,0,0-.17-1.5.94.94,0,0,0-1.2-.41,4.07,4.07,0,0,0-1.56,1.42,9.83,9.83,0,0,0-1.4,2.76,3.34,3.34,0,0,0-.23,1.17,15.06,15.06,0,0,1,1.94-3.58,3.76,3.76,0,0,1,1.38-1.17.51.51,0,0,1,.66.22,1.33,1.33,0,0,1,.06,1,4.14,4.14,0,0,1-3.42,3,3.44,3.44,0,0,1-3.41-2.81,1.72,1.72,0,0,1,.1-1,.57.57,0,0,1,.64-.32,3,3,0,0,1,1.35,1.17A12.71,12.71,0,0,1,449.68,459.09Z"/><polygon class="cls-10" points="375.39 409.31 377.82 455.23 394.88 455.09 397.76 407.37 375.39 409.31"/><path class="cls-5" d="M377.51,449.69V451s-19.26,9-19.5,13.19h38.2l-.54-14.87A19,19,0,0,1,377.51,449.69Z"/><path class="cls-7" d="M391.81,454.08a1.86,1.86,0,0,1,1.08,2.08,1.5,1.5,0,0,1-1.75,1.27,2,2,0,0,1-1.14-2.21,1.52,1.52,0,0,1,1.95-1.09"/><path class="cls-7" d="M396.25,464.21l-.13-3.57L359.56,462s-1.7.86-1.51,2.25Z"/><path class="cls-7" d="M377.36,451.15c0,.21.94.31,1.86,1s1.41,1.62,1.58,1.53-.11-1.35-1.23-2.16S377.32,450.94,377.36,451.15Z"/><path class="cls-7" d="M373.36,453.09c0,.21.76.58,1.4,1.5s.82,1.9,1,1.9.31-1.26-.5-2.34S373.36,452.88,373.36,453.09Z"/><path class="cls-7" d="M371.09,458.7c.17,0,.43-1,0-2.24s-1.36-1.67-1.44-1.48.47.82.85,1.8S370.9,458.69,371.09,458.7Z"/><path class="cls-7" d="M397.76,267.16c-.51,1.72-20.74,81.9-20.74,81.9l-3.48,95.14,25.18,1.7,9-95,23-59.41-10.11-48.34H400.05Z"/><path class="cls-7" d="M415.68,243.17C416,244.34,429,298.74,429,298.74l1.79,81.12V447h22.95l10.69-148S466.27,272.05,463,263s-16.31-24.93-16.31-24.93Z"/><path class="cls-9" d="M417.53,248.74a15.07,15.07,0,0,1,.52,1.89c.33,1.33.77,3.08,1.29,5.2,1.16,4.48,2.7,10.53,4.41,17.11s3.08,12.87,3.88,17.31c.42,2.24.69,4.07.85,5.33a13,13,0,0,1,.19,2,15.7,15.7,0,0,1-.39-1.93c-.22-1.25-.55-3.07-1-5.28-.89-4.46-2.33-10.53-4-17.23S420,260.37,419,256c-.51-2.22-.9-4-1.14-5.26A14.22,14.22,0,0,1,417.53,248.74Z"/><path class="cls-9" d="M425.45,248.74a3,3,0,0,0-1.44,1.17,2.47,2.47,0,0,0-.2,2.06,2.06,2.06,0,0,0,1.7,1.46,2,2,0,0,0,1.81-1.27,2.52,2.52,0,0,0,0-2.08,3.17,3.17,0,0,0-1.34-1.35.88.88,0,0,1,.53.07,2.32,2.32,0,0,1,1.12,1.07,2.92,2.92,0,0,1,.15,2.53,2.24,2.24,0,0,1-3.12,1.4,2.65,2.65,0,0,1-1.27-1.63,3,3,0,0,1,.35-2.51,2.22,2.22,0,0,1,1.21-.94C425.25,248.66,425.45,248.7,425.45,248.74Z"/><path class="cls-9" d="M445.82,287.81a2.8,2.8,0,0,1,0,.41V294c0,4,0,9.81-.11,17-.18,14.32-.73,34.08-1.45,55.91s-1.32,41.6-1.6,55.91c-.14,7.16-.23,13-.28,17,0,2,0,3.51-.06,4.61v1.17a.22.22,0,0,1,.15.25.19.19,0,0,1-.21.17.22.22,0,0,1-.15-.25.22.22,0,0,1,.15-.17v-5.78c0-4,0-9.8.11-17,.19-14.32.73-34.09,1.45-55.92s1.32-41.59,1.6-55.9c.14-7.16.24-12.95.28-16.95,0-2,.05-3.51.06-4.61v-1.17A1.45,1.45,0,0,1,445.82,287.81Z"/><path class="cls-9" d="M410.41,278a2.75,2.75,0,0,1-.11.41l-.39,1.17c-.37,1.09-.89,2.64-1.55,4.61-1.37,4-3.34,9.8-5.78,16.91s-5.22,15.7-7.88,25.36a186,186,0,0,0-6.35,32.09c-.53,5.85-.76,11.56-1.06,17.07s-.5,10.84-.74,15.92c-.45,10.14-.85,19.28-1.19,27s-.7,13.88-1,18.17c-.15,2.11-.26,3.76-.34,4.93,0,.54-.08,1-.11,1.28a3.12,3.12,0,0,1-.05.44,3.23,3.23,0,0,1,0-.44c0-.32,0-.75.05-1.29.06-1.17.14-2.82.25-4.94.21-4.29.49-10.52.8-18.18s.68-16.83,1.08-27c.23-5.08.46-10.41.71-15.94s.52-11.24,1.05-17.09a185.92,185.92,0,0,1,6.45-32.17c2.69-9.67,5.56-18.2,8-25.34s4.52-12.87,5.93-16.83c.7-2,1.25-3.51,1.64-4.58l.44-1.17A2.74,2.74,0,0,1,410.41,278Z"/><path class="cls-5" d="M445,147.4s13.65,3,16.65,5.91S492,198,492.59,206.38s-2.76,11.51-4.65,13.51-34.57,27.89-34.57,27.89l-10.05-19.5,28.24-19.74-13.63-27.27Z"/><path class="cls-12" d="M480.68,201.13a14.27,14.27,0,0,0-5.43,2.19,17.81,17.81,0,0,0-4.06,4.75,4.9,4.9,0,0,1,.75-1.84,10.15,10.15,0,0,1,7-5.12A3.21,3.21,0,0,1,480.68,201.13Z"/><path class="cls-3" d="M412,149.43l3.62,38.42L434,144.56,446,158.72s7.31,50.59,7.42,51-5,28.94-5,28.94l-33.85,7.66-10.33-3.07-1.63-45-.72-34.46Z"/><path class="cls-5" d="M407.56,151.07l-8.79,2.34a7,7,0,0,0-3.18,1.88c-7.5,7.51-23.72,23.4-23.72,23.4l3-28.2-15.62-1.69s-4.68,35.54-4.2,44.88c.57,10.86,8.89,13.53,21,7.69a150.57,150.57,0,0,0,21.67-12.49Z"/><path class="cls-5" d="M456.58,181.42,455,215.12l1.62,6.55s15.16,33.48,17.66,55.65l-18.76,3.51s-5.12-28.6-8.72-42.78-14.25-20.15-17.85-34.73a78.3,78.3,0,0,1-2.27-25.73c0-.89,7.39-33,7.39-33l1.32-6.72,6.64,7.39,17.05,6.63Z"/><g class="cls-13"><path d="M465.52,244.08a97.44,97.44,0,0,1-9.71,7.74c-.2.11-.46.24-.75.37a2.83,2.83,0,0,1-3.67-1.61c-.4-.86-.81-1.76-1.08-2.44-.69-1.74-1.44-3.83-2.11-5.65l2.11-.59,3.06,5.93,8.82-7,1.68-1.35Z"/></g><path class="cls-5" d="M412.11,145.64l-4.1,5-9.83,4s-2.4,33.93-1.1,41.16c1.26,7,3.66,15.39,3.86,25.37s-9.54,62.72-9.54,62.72l11.78,5.23s6-61.06,4.83-74.37,1.87-40.15,1.87-40.15Z"/><path class="cls-4" d="M434.41,210.34a3.37,3.37,0,0,1-.43-.55,11.32,11.32,0,0,1-1-1.81,20.77,20.77,0,0,1-1.53-7.67,84.59,84.59,0,0,1,.7-11.7,117.8,117.8,0,0,1,2.49-14,114,114,0,0,1,8-22.72l.16.34-4.17-.15h-.3l.18-.28,2.74-4.31.74-1.17a1.65,1.65,0,0,1,.28-.36,1.65,1.65,0,0,1-.21.42l-.68,1.17-2.62,4.41-.12-.28,4.17.06h.32L443,152a120.9,120.9,0,0,0-7.86,22.66,125,125,0,0,0-2.52,13.93,91.32,91.32,0,0,0-.8,11.58,21.76,21.76,0,0,0,1.34,7.58A27.77,27.77,0,0,0,434.41,210.34Z"/><path class="cls-4" d="M446,179.24a15.93,15.93,0,0,1-4.83,1.07,15,15,0,0,1-4.91.07,31.93,31.93,0,0,1,4.86-.68A28.59,28.59,0,0,1,446,179.24Z"/><path class="cls-4" d="M457.91,171.42a12.1,12.1,0,0,1-.21,1.71c-.13,1.1-.3,2.69-.46,4.68-.32,3.95-.64,9.42-1,15.45l-.8,15.48c-.12,2-.22,3.58-.31,4.68a9.74,9.74,0,0,1-.2,1.71,12.34,12.34,0,0,1,0-1.72c0-1.23.08-2.81.14-4.68.13-4,.34-9.44.65-15.49s.7-11.51,1.12-15.47c.2-2,.43-3.51.62-4.68A9.57,9.57,0,0,1,457.91,171.42Z"/><path class="cls-4" d="M479.74,209.67c-.05.17-1.89-.52-4.25-.72s-4.26.15-4.29,0a7.79,7.79,0,0,1,4.33-.57A8.15,8.15,0,0,1,479.74,209.67Z"/><path class="cls-4" d="M372,178a20.22,20.22,0,0,1-1.38,4.37,18.84,18.84,0,0,1-1.85,4.11,19.6,19.6,0,0,1,1.38-4.36A19.63,19.63,0,0,1,372,178Z"/><path class="cls-4" d="M396.49,166.79c.14,0,.37,6.62.5,14.8s.13,14.81,0,14.81-.37-6.62-.51-14.8S396.35,166.8,396.49,166.79Z"/><path class="cls-4" d="M408.15,194.61a10.85,10.85,0,0,1-.13-1.71c0-1.17-.08-2.78-.14-4.68-.1-3.94-.21-9.36-.29-15.39s-.12-11.47-.13-15.41v-4.68a10.88,10.88,0,0,1,.08-1.71,10.85,10.85,0,0,1,.13,1.71c0,1.17.08,2.78.14,4.68.1,3.94.2,9.36.28,15.39s.13,11.46.14,15.4v4.68A12.38,12.38,0,0,1,408.15,194.61Z"/><path class="cls-4" d="M482.18,224.73a4.12,4.12,0,0,1-.54.49l-1.6,1.35-6,4.93-20.52,16.57-.22.19-.14-.27-4.5-8.73-5.54-10.78-.13-.26.21-.15,20.26-14L469.4,210l1.6-1.06a2.77,2.77,0,0,1,.57-.34,3.12,3.12,0,0,1-.53.43l-1.55,1.17-5.86,4.19-20.18,14.21.09-.41c1.75,3.41,3.63,7,5.56,10.78l4.49,8.72-.37-.09,20.62-16.38,6.1-4.77,1.65-1.26A4.11,4.11,0,0,1,482.18,224.73Z"/><g class="cls-13"><path d="M433,207.84a52.84,52.84,0,0,1,1.21-15,161.91,161.91,0,0,1,12.62-39.11,3.29,3.29,0,0,0-4.26.56,12.19,12.19,0,0,0-2.54,4.42,122.89,122.89,0,0,0-8.25,35,39.2,39.2,0,0,0-.15,7c.2,2.46.2,5,1.5,7"/></g><g class="cls-13"><path d="M396.46,169.25c-3.11,6.31-2.7,13.92.27,20.33,0-7,0-13.16-.36-20.24"/></g><path class="cls-11" d="M420.64,122.38a1.48,1.48,0,0,0-.57-1,1.17,1.17,0,0,0-.66-.11,13.38,13.38,0,0,0-3.85.64l-.07.23a11.14,11.14,0,0,0,.35,1.93,3.6,3.6,0,0,0,.92,1.63,2.16,2.16,0,0,0,2.91,0A3.59,3.59,0,0,0,420.64,122.38Z"/><path class="cls-4" d="M416.78,126a4.43,4.43,0,0,0,1.62-.12,2.55,2.55,0,0,0,1.35-1.17,3.23,3.23,0,0,0,.36-2.27,1.5,1.5,0,0,0-.5-.9,1.27,1.27,0,0,0-.9,0l-1.8.4a4.91,4.91,0,0,1-1.7.22,5.22,5.22,0,0,1,1.62-.64l1.78-.53a1.64,1.64,0,0,1,1.23,0,2,2,0,0,1,.77,1.28,3.75,3.75,0,0,1-.47,2.75,2.75,2.75,0,0,1-1.65,1.17A1.75,1.75,0,0,1,416.78,126Z"/><path class="cls-1" d="M438.6,127.13a1.77,1.77,0,0,0-1.88-1.32h0a1.53,1.53,0,0,0-1.11.79,2.38,2.38,0,0,0,.19,2.47,1.55,1.55,0,0,0,2.08.37A2.15,2.15,0,0,0,438.6,127.13Z"/><path class="cls-10" d="M443.76,229.48l-11.57-12-9.77,1s.34,1.88,1.69,2.17a62.34,62.34,0,0,0,6.23.4l2.29,2.65L426.8,223l-7.41,5.12s-.17,1.58,1.77,1.17a34.53,34.53,0,0,0,5.64-2.17l4.31.29-4.7.8-6.09,5a2.88,2.88,0,0,0,3.2,1c1.94-.69,4.29-1.78,4.29-1.78l5.31-.59-5.31,1.58-3.95,5.72a2,2,0,0,0,2.55,0,29.18,29.18,0,0,0,2.25-2.07l5.89-.31s6.51,5.52,8.77,6.12,7-1,7-1Z"/></g><g id="freepik--job-offers--inject-95"><rect class="cls-1" x="493.79" y="285.91" width="179.29" height="117.28"/><path class="cls-4" d="M673.08,403.19V371.51c0-20.3-.06-49.6-.11-85.6l.2.23-179.28.07h0l.26-.3V403.19l-.24-.28,129,.14,37,.07H660l-37,.08-129.11.14h-.25V285.46h.27l179.28.07h.2v.24c0,36.06-.08,65.4-.11,85.75V401A9,9,0,0,1,673.08,403.19Z"/><rect class="cls-7" x="515.7" y="313.85" width="25.35" height="29.66"/><path class="cls-12" d="M575.86,318c0,.18-5.92.32-13.21.32s-13.22-.14-13.22-.32,5.92-.3,13.22-.3S575.86,317.86,575.86,318Z"/><path class="cls-4" d="M660.25,328.69c0,.16-24.82.3-55.42.3s-55.42-.14-55.42-.3,24.81-.31,55.42-.31S660.25,328.5,660.25,328.69Z"/><path class="cls-4" d="M623,340.64c0,.17-16.31.31-36.41.31s-36.42-.14-36.42-.31,16.3-.3,36.42-.3S623,340.48,623,340.64Z"/><path class="cls-5" d="M524.07,360.16H646.54c6.49,0,11.75,6.15,11.75,13.74h0c0,7.6-5.26,13.75-11.75,13.75H524.07c-6.49,0-11.75-6.15-11.75-13.75h0C512.32,366.31,517.58,360.16,524.07,360.16Z"/><path class="cls-3" d="M562.79,375.82h-3l-.57,1.63h-1.54l2.89-7.57h1.48l2.89,7.57h-1.57Zm-.47-1.32-1-2.9-1,2.9Z"/><path class="cls-3" d="M571.25,372.63a2.58,2.58,0,0,1-2.81,2.74h-1.3v2.08h-1.5v-7.57h2.8A2.59,2.59,0,0,1,571.25,372.63Zm-1.51,0a1.22,1.22,0,0,0-1.38-1.32h-1.22v2.63h1.22a1.2,1.2,0,0,0,1.35-1.31Z"/><path class="cls-3" d="M577.9,372.63a2.58,2.58,0,0,1-2.81,2.74h-1.3v2.08h-1.54v-7.57h2.8A2.59,2.59,0,0,1,577.9,372.63Zm-1.52,0a1.21,1.21,0,0,0-1.37-1.32h-1.22v2.63H575A1.21,1.21,0,0,0,576.38,372.63Z"/><path class="cls-3" d="M579,369.88h1.49V376h3.25v1.43H579Z"/><path class="cls-3" d="M587,374.77v2.68h-1.5v-2.7l-2.5-4.87h1.59l1.73,3.36,1.73-3.36h1.47Z"/><path class="cls-3" d="M598.69,369.88v7.57h-1.23l-3.21-4.6v4.6h-1.48v-7.57H594l3.24,4.6v-4.6Z"/><path class="cls-3" d="M599.82,373.66c-.11-2.29,1.39-4.25,3.34-4.38s3.64,1.62,3.75,3.91-1.39,4.25-3.35,4.38h-.19a3.58,3.58,0,0,1-3.54-3.68A1.93,1.93,0,0,1,599.82,373.66Zm5.57,0a2.16,2.16,0,0,0-2.08-2.25,2.24,2.24,0,0,0-1.92,2.44,2,2,0,1,0,4-.1Z"/><path class="cls-3" d="M617.61,369.88l-2.12,7.57h-1.61l-1.42-5.13L611,377.45h-1.6l-2.14-7.57h1.55l1.47,5.32,1.52-5.32h1.39l1.48,5.36,1.5-5.36Z"/><rect class="cls-1" x="25.69" y="204.41" width="132.71" height="86.8"/><path class="cls-4" d="M158.4,291.23v-6.11c0-4,0-9.84-.05-17.36,0-15-.07-36.7-.11-63.35l.2.24-132.7.07h0l.26-.31v86.82l-.24-.28,95.42.13,27.43.08h.11l-27.37.07-95.59.14h-.31V204h.27l132.7.08h.2v.22c0,26.71-.08,48.44-.11,63.49,0,7.5,0,13.34,0,17.32v4.49C158.46,290.55,158.4,291.23,158.4,291.23Z"/><rect class="cls-7" x="41.91" y="225.11" width="18.76" height="21.95"/><path class="cls-12" d="M86.44,228.2a79.83,79.83,0,0,1-9.78.3,79.83,79.83,0,0,1-9.78-.3,77.9,77.9,0,0,1,9.78-.31A77.9,77.9,0,0,1,86.44,228.2Z"/><path class="cls-4" d="M148.91,236.08c0,.18-18.36.31-41,.31s-41-.13-41-.31,18.36-.3,41-.3S148.91,235.92,148.91,236.08Z"/><path class="cls-4" d="M121.31,244.94c0,.16-12.06.3-26.95.3s-26.95-.14-26.95-.3,12.06-.31,27-.31S121.31,244.76,121.31,244.94Z"/><path class="cls-5" d="M48.11,259.37h90.64c4.8,0,8.7,4.56,8.7,10.18h0c0,5.61-3.9,10.17-8.7,10.17H48.11c-4.8,0-8.7-4.56-8.7-10.17h0C39.41,263.93,43.31,259.37,48.11,259.37Z"/><path class="cls-3" d="M76.77,271H74.54l-.43,1.17H73l2.13-5.62h1.14l2.15,5.62H77.23Zm-.35-1-.76-2.16L74.9,270Z"/><path class="cls-3" d="M83,268.6a1.9,1.9,0,0,1-2.08,2h-1v1.55H78.85v-5.61h2.08A1.89,1.89,0,0,1,83,268.6Zm-1.12,0a.9.9,0,0,0-1-1H80v1.95h.91A.89.89,0,0,0,81.89,268.6Z"/><path class="cls-3" d="M88,268.6a1.9,1.9,0,0,1-2.08,2h-1v1.55H83.76v-5.61h2.07A1.92,1.92,0,0,1,88,268.6Zm-1.12,0a.89.89,0,0,0-1-1h-.9v1.95h.9A.89.89,0,0,0,86.83,268.6Z"/><path class="cls-3" d="M88.74,266.57h1.11v4.61h2.4v1.06H88.74Z"/><path class="cls-3" d="M94.68,270.19v2H93.57v-2l-1.85-3.6h1.17l1.29,2.49,1.28-2.49h1.09Z"/><path class="cls-3" d="M103.34,266.57v5.61h-.91L100,268.77v3.41H99v-5.61h.91l2.39,3.44V266.6Z"/><path class="cls-3" d="M104.18,269.38a2.93,2.93,0,0,1,2.48-3.23,2.81,2.81,0,0,1,2.75,2.9,2.92,2.92,0,0,1-2.47,3.22h-.14a2.67,2.67,0,0,1-2.62-2.74Zm4.12,0a1.63,1.63,0,0,0-1.53-1.72,1.78,1.78,0,0,0,0,3.51,1.61,1.61,0,0,0,1.5-1.69v-.1Z"/><path class="cls-3" d="M117.35,266.57l-1.57,5.61h-1.19l-1.06-3.8-1.09,3.8h-1.19l-1.58-5.61h1.15l1.08,3.94,1.13-3.94h1l1.1,4,1.12-4Z"/><rect class="cls-1" x="495.77" y="52.76" width="145.6" height="95.24"/><path class="cls-4" d="M641.37,148v-6.69c0-4.38,0-10.8,0-19,0-16.48-.06-40.26-.1-69.5l.2.24-145.59.07h0l.26-.31V148l-.24-.28,104.7.13,30.09.08h.07l-30,.08-104.94.33h-.24V52.41h.27l145.59.07h.2v.23c-.05,29.25-.08,53.13-.11,69.65,0,8.19,0,14.63-.05,19v4.93C641.43,147.43,641.37,148,641.37,148Z"/><rect class="cls-7" x="513.56" y="75.46" width="20.58" height="24.08"/><path class="cls-12" d="M562.42,78.85a98,98,0,0,1-10.73.3,98,98,0,0,1-10.73-.3,182.91,182.91,0,0,1,21.46,0Z"/><path class="cls-4" d="M631,87.51c0,.17-20.15.31-45,.31s-45-.14-45-.31,20.14-.31,45-.31S631,87.33,631,87.51Z"/><path class="cls-4" d="M600.68,97.22c0,.16-13.24.3-29.57.3s-29.57-.14-29.57-.3,13.24-.31,29.57-.31S600.68,97,600.68,97.22Z"/><path class="cls-5" d="M619.81,135.38H520.36c-5.27,0-9.54-5-9.54-11.16h0c0-6.17,4.27-11.16,9.54-11.16h99.45c5.27,0,9.54,5,9.54,11.16h0C629.35,130.38,625.08,135.38,619.81,135.38Z"/><path class="cls-3" d="M551.8,125.79h-2.44l-.46,1.31h-1.25L550,121h1.2l2.35,6.15h-1.29Zm-.38-1.09-.83-2.34-.84,2.34Z"/><path class="cls-3" d="M558.65,123.19a2.08,2.08,0,0,1-2.28,2.21h-1.06v1.7h-1.22V121h2.28A2.1,2.1,0,0,1,558.65,123.19Zm-1.23,0a1,1,0,0,0-1.12-1.08h-1v2.13h1a1,1,0,0,0,1.12-1Z"/><path class="cls-3" d="M564.07,123.19a2.08,2.08,0,0,1-2.28,2.21h-1.06v1.7h-1.21V121h2.27A2.07,2.07,0,0,1,564.07,123.19Zm-1.23,0a1,1,0,0,0-1.12-1.08h-1v2.13h1A1,1,0,0,0,562.84,123.19Z"/><path class="cls-3" d="M564.94,121h1.22v5h2.63v1.17h-3.85Z"/><path class="cls-3" d="M571.46,124.94v2.18h-1.21v-2.18l-2-4h1.29l1.4,2.72,1.41-2.72h1.19Z"/><path class="cls-3" d="M581,121v6.15h-1l-2.62-3.74v3.74h-1.2V121h1l2.61,3.74V121Z"/><path class="cls-3" d="M581.88,124a3.23,3.23,0,0,1,2.71-3.56,3.08,3.08,0,0,1,3,3.16,3.23,3.23,0,0,1-2.71,3.56h-.17a2.91,2.91,0,0,1-2.87-3Zm4.52,0a1.67,1.67,0,1,0-3.3.07,1.81,1.81,0,0,0,1.65,1.9,1.75,1.75,0,0,0,1.65-1.84Z"/><path class="cls-3" d="M596.32,121l-1.72,6.15h-1.35l-1.15-4.17-1.2,4.17h-1.3L587.88,121h1.26l1.18,4.32,1.24-4.32h1.13l1.2,4.36,1.22-4.36Z"/></g></g></g></svg>